<mxfile host="app.diagrams.net" modified="2024-03-19T00:29:20.538Z" agent="Mozilla/5.0 (Windows NT 10.0; Win64; x64) AppleWebKit/537.36 (KHTML, like Gecko) Chrome/122.0.0.0 Safari/537.36" etag="B25FqlbalMffJKnSI36u" version="24.0.7" type="device">
  <diagram name="페이지-1" id="dvUR8plSkSYp9L8p-llm">
    <mxGraphModel dx="667" dy="363" grid="1" gridSize="10" guides="1" tooltips="1" connect="1" arrows="1" fold="1" page="1" pageScale="1" pageWidth="827" pageHeight="1169" math="0" shadow="0">
      <root>
        <mxCell id="0" />
        <mxCell id="1" parent="0" />
        <mxCell id="aHdXoiT4e0akhCMBk4jk-1" value="Event Loop" style="swimlane;whiteSpace=wrap;html=1;" parent="1" vertex="1">
          <mxGeometry x="40" y="40" width="770" height="570" as="geometry" />
        </mxCell>
        <mxCell id="aHdXoiT4e0akhCMBk4jk-8" value="JS Engine(V8)" style="swimlane;whiteSpace=wrap;html=1;labelBackgroundColor=none;fillColor=#d5e8d4;strokeColor=#82b366;" parent="aHdXoiT4e0akhCMBk4jk-1" vertex="1">
          <mxGeometry x="20" y="40" width="440" height="260" as="geometry" />
        </mxCell>
        <mxCell id="aHdXoiT4e0akhCMBk4jk-2" value="CallStack" style="swimlane;whiteSpace=wrap;html=1;fillColor=#dae8fc;strokeColor=#6c8ebf;" parent="aHdXoiT4e0akhCMBk4jk-8" vertex="1">
          <mxGeometry x="20" y="40" width="200" height="200" as="geometry" />
        </mxCell>
        <mxCell id="aHdXoiT4e0akhCMBk4jk-18" value="Execution Context&lt;div&gt;실행 컨텍스트&lt;/div&gt;" style="rounded=0;whiteSpace=wrap;html=1;fillColor=#fff2cc;strokeColor=#d6b656;" parent="aHdXoiT4e0akhCMBk4jk-2" vertex="1">
          <mxGeometry x="10" y="150" width="180" height="40" as="geometry" />
        </mxCell>
        <mxCell id="aHdXoiT4e0akhCMBk4jk-3" value="MemoryHeap" style="swimlane;whiteSpace=wrap;html=1;fillColor=#dae8fc;strokeColor=#6c8ebf;" parent="aHdXoiT4e0akhCMBk4jk-8" vertex="1">
          <mxGeometry x="220" y="40" width="200" height="200" as="geometry" />
        </mxCell>
        <mxCell id="aHdXoiT4e0akhCMBk4jk-9" value="CallbackQueue" style="swimlane;whiteSpace=wrap;html=1;fillColor=#d5e8d4;strokeColor=#82b366;" parent="aHdXoiT4e0akhCMBk4jk-1" vertex="1">
          <mxGeometry x="280" y="340" width="460" height="200" as="geometry" />
        </mxCell>
        <mxCell id="aHdXoiT4e0akhCMBk4jk-10" value="Web APIs" style="swimlane;whiteSpace=wrap;html=1;fillColor=#d5e8d4;strokeColor=#82b366;" parent="aHdXoiT4e0akhCMBk4jk-1" vertex="1">
          <mxGeometry x="590" y="40" width="160" height="220" as="geometry" />
        </mxCell>
        <mxCell id="aHdXoiT4e0akhCMBk4jk-11" value="window(BOM)" style="rounded=0;whiteSpace=wrap;html=1;fillColor=#dae8fc;strokeColor=#6c8ebf;" parent="aHdXoiT4e0akhCMBk4jk-10" vertex="1">
          <mxGeometry x="20" y="40" width="120" height="40" as="geometry" />
        </mxCell>
        <mxCell id="aHdXoiT4e0akhCMBk4jk-12" value="setTimeout" style="rounded=0;whiteSpace=wrap;html=1;fillColor=#dae8fc;strokeColor=#6c8ebf;" parent="aHdXoiT4e0akhCMBk4jk-10" vertex="1">
          <mxGeometry x="20" y="80" width="120" height="40" as="geometry" />
        </mxCell>
        <mxCell id="aHdXoiT4e0akhCMBk4jk-13" value="setInterval" style="rounded=0;whiteSpace=wrap;html=1;fillColor=#dae8fc;strokeColor=#6c8ebf;" parent="aHdXoiT4e0akhCMBk4jk-10" vertex="1">
          <mxGeometry x="20" y="120" width="120" height="40" as="geometry" />
        </mxCell>
        <mxCell id="aHdXoiT4e0akhCMBk4jk-14" value="Ajax" style="rounded=0;whiteSpace=wrap;html=1;fillColor=#dae8fc;strokeColor=#6c8ebf;" parent="aHdXoiT4e0akhCMBk4jk-10" vertex="1">
          <mxGeometry x="20" y="160" width="120" height="40" as="geometry" />
        </mxCell>
        <mxCell id="aHdXoiT4e0akhCMBk4jk-15" value="Event Loop" style="ellipse;shape=umlControl;whiteSpace=wrap;html=1;fontSize=20;fillColor=#d5e8d4;strokeColor=#82b366;" parent="aHdXoiT4e0akhCMBk4jk-1" vertex="1">
          <mxGeometry x="40" y="360" width="140" height="160" as="geometry" />
        </mxCell>
        <mxCell id="aHdXoiT4e0akhCMBk4jk-17" style="edgeStyle=orthogonalEdgeStyle;rounded=0;orthogonalLoop=1;jettySize=auto;html=1;entryX=0;entryY=0.5;entryDx=0;entryDy=0;exitX=0.25;exitY=0;exitDx=0;exitDy=0;" parent="1" source="aHdXoiT4e0akhCMBk4jk-16" target="aHdXoiT4e0akhCMBk4jk-18" edge="1">
          <mxGeometry relative="1" as="geometry" />
        </mxCell>
        <mxCell id="aHdXoiT4e0akhCMBk4jk-16" value="코드" style="rounded=1;whiteSpace=wrap;html=1;" parent="1" vertex="1">
          <mxGeometry x="40" y="640" width="120" height="60" as="geometry" />
        </mxCell>
        <mxCell id="aHdXoiT4e0akhCMBk4jk-19" value="실행 컨텍스트" style="swimlane;whiteSpace=wrap;html=1;fillColor=#fff2cc;strokeColor=#d6b656;" parent="1" vertex="1">
          <mxGeometry x="840" y="40" width="320" height="160" as="geometry" />
        </mxCell>
        <mxCell id="aHdXoiT4e0akhCMBk4jk-21" value="Variable Environment" style="rounded=0;whiteSpace=wrap;html=1;fillColor=#e1d5e7;strokeColor=#9673a6;" parent="aHdXoiT4e0akhCMBk4jk-19" vertex="1">
          <mxGeometry x="20" y="40" width="140" height="40" as="geometry" />
        </mxCell>
        <mxCell id="aHdXoiT4e0akhCMBk4jk-20" style="edgeStyle=orthogonalEdgeStyle;rounded=0;orthogonalLoop=1;jettySize=auto;html=1;exitX=0.75;exitY=0;exitDx=0;exitDy=0;entryX=0.5;entryY=0;entryDx=0;entryDy=0;" parent="1" source="aHdXoiT4e0akhCMBk4jk-18" target="aHdXoiT4e0akhCMBk4jk-19" edge="1">
          <mxGeometry relative="1" as="geometry" />
        </mxCell>
        <mxCell id="aHdXoiT4e0akhCMBk4jk-31" style="edgeStyle=orthogonalEdgeStyle;rounded=0;orthogonalLoop=1;jettySize=auto;html=1;exitX=0;exitY=0.5;exitDx=0;exitDy=0;entryX=0;entryY=0.5;entryDx=0;entryDy=0;" parent="1" source="aHdXoiT4e0akhCMBk4jk-23" target="aHdXoiT4e0akhCMBk4jk-30" edge="1">
          <mxGeometry relative="1" as="geometry" />
        </mxCell>
        <mxCell id="aHdXoiT4e0akhCMBk4jk-23" value="let a = 1;&lt;div&gt;var b = 2;&lt;/div&gt;" style="rounded=1;whiteSpace=wrap;html=1;" parent="1" vertex="1">
          <mxGeometry x="40" y="760" width="120" height="60" as="geometry" />
        </mxCell>
        <mxCell id="aHdXoiT4e0akhCMBk4jk-24" value="Event Loop" style="swimlane;whiteSpace=wrap;html=1;" parent="1" vertex="1">
          <mxGeometry x="40" y="840" width="620" height="430" as="geometry" />
        </mxCell>
        <mxCell id="aHdXoiT4e0akhCMBk4jk-25" value="JS Engine" style="swimlane;whiteSpace=wrap;html=1;fillColor=#d5e8d4;strokeColor=#82b366;" parent="aHdXoiT4e0akhCMBk4jk-24" vertex="1">
          <mxGeometry x="20" y="40" width="580" height="370" as="geometry" />
        </mxCell>
        <mxCell id="aHdXoiT4e0akhCMBk4jk-26" value="CallStack" style="swimlane;whiteSpace=wrap;html=1;fillColor=#dae8fc;strokeColor=#6c8ebf;" parent="aHdXoiT4e0akhCMBk4jk-25" vertex="1">
          <mxGeometry x="20" y="40" width="540" height="310" as="geometry" />
        </mxCell>
        <mxCell id="aHdXoiT4e0akhCMBk4jk-27" value="Execution Context" style="swimlane;whiteSpace=wrap;html=1;fillColor=#fff2cc;strokeColor=#d6b656;" parent="aHdXoiT4e0akhCMBk4jk-26" vertex="1">
          <mxGeometry x="20" y="40" width="500" height="250" as="geometry" />
        </mxCell>
        <mxCell id="aHdXoiT4e0akhCMBk4jk-38" style="edgeStyle=orthogonalEdgeStyle;rounded=0;orthogonalLoop=1;jettySize=auto;html=1;exitX=1;exitY=0.5;exitDx=0;exitDy=0;entryX=0;entryY=0.5;entryDx=0;entryDy=0;" parent="aHdXoiT4e0akhCMBk4jk-27" source="aHdXoiT4e0akhCMBk4jk-28" target="aHdXoiT4e0akhCMBk4jk-37" edge="1">
          <mxGeometry relative="1" as="geometry" />
        </mxCell>
        <mxCell id="aHdXoiT4e0akhCMBk4jk-28" value="Variable Environment" style="swimlane;whiteSpace=wrap;html=1;fillColor=#e1d5e7;strokeColor=#9673a6;" parent="aHdXoiT4e0akhCMBk4jk-27" vertex="1">
          <mxGeometry x="20" y="40" width="120" height="90" as="geometry" />
        </mxCell>
        <mxCell id="aHdXoiT4e0akhCMBk4jk-30" value="a" style="rounded=0;whiteSpace=wrap;html=1;" parent="aHdXoiT4e0akhCMBk4jk-28" vertex="1">
          <mxGeometry x="15" y="40" width="90" height="22.5" as="geometry" />
        </mxCell>
        <mxCell id="aHdXoiT4e0akhCMBk4jk-32" value="b = undefined" style="rounded=0;whiteSpace=wrap;html=1;" parent="aHdXoiT4e0akhCMBk4jk-28" vertex="1">
          <mxGeometry x="15" y="62.5" width="90" height="22.5" as="geometry" />
        </mxCell>
        <mxCell id="aHdXoiT4e0akhCMBk4jk-33" value="Global Lexical Environment" style="swimlane;whiteSpace=wrap;html=1;fillColor=#e1d5e7;strokeColor=#9673a6;" parent="aHdXoiT4e0akhCMBk4jk-27" vertex="1">
          <mxGeometry x="180" y="40" width="300" height="160" as="geometry" />
        </mxCell>
        <mxCell id="aHdXoiT4e0akhCMBk4jk-37" value="Environment Record" style="swimlane;whiteSpace=wrap;html=1;fillColor=#ffe6cc;strokeColor=#d79b00;" parent="aHdXoiT4e0akhCMBk4jk-33" vertex="1">
          <mxGeometry x="20" y="40" width="120" height="100" as="geometry" />
        </mxCell>
        <mxCell id="aHdXoiT4e0akhCMBk4jk-34" value="a" style="rounded=0;whiteSpace=wrap;html=1;" parent="aHdXoiT4e0akhCMBk4jk-37" vertex="1">
          <mxGeometry x="15" y="40" width="90" height="22.5" as="geometry" />
        </mxCell>
        <mxCell id="aHdXoiT4e0akhCMBk4jk-35" value="b = undefined" style="rounded=0;whiteSpace=wrap;html=1;" parent="aHdXoiT4e0akhCMBk4jk-37" vertex="1">
          <mxGeometry x="15" y="62.5" width="90" height="22.5" as="geometry" />
        </mxCell>
        <mxCell id="aHdXoiT4e0akhCMBk4jk-40" value="Outer Lexical Environment" style="swimlane;whiteSpace=wrap;html=1;fillColor=#ffe6cc;strokeColor=#d79b00;" parent="aHdXoiT4e0akhCMBk4jk-33" vertex="1">
          <mxGeometry x="160" y="40" width="120" height="100" as="geometry" />
        </mxCell>
        <mxCell id="aHdXoiT4e0akhCMBk4jk-47" value="null" style="rounded=0;whiteSpace=wrap;html=1;" parent="aHdXoiT4e0akhCMBk4jk-40" vertex="1">
          <mxGeometry x="10" y="40" width="90" height="22.5" as="geometry" />
        </mxCell>
        <mxCell id="aHdXoiT4e0akhCMBk4jk-48" value="This Binding" style="swimlane;whiteSpace=wrap;html=1;fillColor=#e1d5e7;strokeColor=#9673a6;" parent="aHdXoiT4e0akhCMBk4jk-27" vertex="1">
          <mxGeometry x="20" y="150" width="120" height="80" as="geometry" />
        </mxCell>
        <mxCell id="aHdXoiT4e0akhCMBk4jk-49" value="window" style="rounded=0;whiteSpace=wrap;html=1;" parent="aHdXoiT4e0akhCMBk4jk-48" vertex="1">
          <mxGeometry x="10" y="40" width="90" height="22.5" as="geometry" />
        </mxCell>
        <mxCell id="aHdXoiT4e0akhCMBk4jk-50" style="edgeStyle=orthogonalEdgeStyle;rounded=0;orthogonalLoop=1;jettySize=auto;html=1;entryX=0;entryY=0.25;entryDx=0;entryDy=0;" parent="aHdXoiT4e0akhCMBk4jk-27" source="aHdXoiT4e0akhCMBk4jk-49" target="aHdXoiT4e0akhCMBk4jk-27" edge="1">
          <mxGeometry relative="1" as="geometry">
            <Array as="points">
              <mxPoint x="75" y="180" />
              <mxPoint x="-10" y="180" />
              <mxPoint x="-10" y="63" />
            </Array>
          </mxGeometry>
        </mxCell>
        <mxCell id="aHdXoiT4e0akhCMBk4jk-51" value="let a = 1;&lt;div&gt;var b = 2;&lt;/div&gt;&lt;div&gt;function c() {}&lt;/div&gt;&lt;div&gt;let d = () =&amp;gt; {}&lt;/div&gt;" style="rounded=1;whiteSpace=wrap;html=1;" parent="1" vertex="1">
          <mxGeometry x="40" y="1320" width="120" height="60" as="geometry" />
        </mxCell>
        <mxCell id="aHdXoiT4e0akhCMBk4jk-52" value="Event Loop(1)" style="swimlane;whiteSpace=wrap;html=1;" parent="1" vertex="1">
          <mxGeometry x="40" y="1400" width="270" height="320" as="geometry" />
        </mxCell>
        <mxCell id="aHdXoiT4e0akhCMBk4jk-53" value="Variable Environment" style="swimlane;whiteSpace=wrap;html=1;fillColor=#e1d5e7;strokeColor=#9673a6;" parent="aHdXoiT4e0akhCMBk4jk-52" vertex="1">
          <mxGeometry x="20" y="40" width="120" height="150" as="geometry" />
        </mxCell>
        <mxCell id="aHdXoiT4e0akhCMBk4jk-54" value="a" style="rounded=0;whiteSpace=wrap;html=1;" parent="aHdXoiT4e0akhCMBk4jk-53" vertex="1">
          <mxGeometry x="15" y="40" width="90" height="22.5" as="geometry" />
        </mxCell>
        <mxCell id="aHdXoiT4e0akhCMBk4jk-55" value="b = undefined" style="rounded=0;whiteSpace=wrap;html=1;" parent="aHdXoiT4e0akhCMBk4jk-53" vertex="1">
          <mxGeometry x="15" y="62.5" width="90" height="22.5" as="geometry" />
        </mxCell>
        <mxCell id="aHdXoiT4e0akhCMBk4jk-100" value="c() {}" style="rounded=0;whiteSpace=wrap;html=1;" parent="aHdXoiT4e0akhCMBk4jk-53" vertex="1">
          <mxGeometry x="15" y="85" width="90" height="22.5" as="geometry" />
        </mxCell>
        <mxCell id="aHdXoiT4e0akhCMBk4jk-101" value="d" style="rounded=0;whiteSpace=wrap;html=1;" parent="aHdXoiT4e0akhCMBk4jk-53" vertex="1">
          <mxGeometry x="15" y="107.5" width="90" height="22.5" as="geometry" />
        </mxCell>
        <mxCell id="aHdXoiT4e0akhCMBk4jk-56" value="Event Loop(2)" style="swimlane;whiteSpace=wrap;html=1;" parent="1" vertex="1">
          <mxGeometry x="330" y="1400" width="270" height="320" as="geometry" />
        </mxCell>
        <mxCell id="aHdXoiT4e0akhCMBk4jk-60" value="Execution Context" style="swimlane;whiteSpace=wrap;html=1;fillColor=#fff2cc;strokeColor=#d6b656;" parent="aHdXoiT4e0akhCMBk4jk-56" vertex="1">
          <mxGeometry x="20" y="40" width="160" height="100" as="geometry" />
        </mxCell>
        <mxCell id="aHdXoiT4e0akhCMBk4jk-61" value="Variable Environment" style="rounded=0;whiteSpace=wrap;html=1;fillColor=#e1d5e7;strokeColor=#9673a6;" parent="aHdXoiT4e0akhCMBk4jk-60" vertex="1">
          <mxGeometry x="20" y="40" width="120" height="40" as="geometry" />
        </mxCell>
        <mxCell id="aHdXoiT4e0akhCMBk4jk-62" style="edgeStyle=orthogonalEdgeStyle;rounded=0;orthogonalLoop=1;jettySize=auto;html=1;exitX=1;exitY=0.5;exitDx=0;exitDy=0;entryX=0;entryY=0.5;entryDx=0;entryDy=0;" parent="1" source="aHdXoiT4e0akhCMBk4jk-53" target="aHdXoiT4e0akhCMBk4jk-61" edge="1">
          <mxGeometry relative="1" as="geometry" />
        </mxCell>
        <mxCell id="aHdXoiT4e0akhCMBk4jk-63" value="Event Loop(3)" style="swimlane;whiteSpace=wrap;html=1;" parent="1" vertex="1">
          <mxGeometry x="620" y="1400" width="270" height="320" as="geometry" />
        </mxCell>
        <mxCell id="aHdXoiT4e0akhCMBk4jk-64" value="Execution Context" style="swimlane;whiteSpace=wrap;html=1;fillColor=#fff2cc;strokeColor=#d6b656;" parent="aHdXoiT4e0akhCMBk4jk-63" vertex="1">
          <mxGeometry x="20" y="40" width="180" height="260" as="geometry" />
        </mxCell>
        <mxCell id="aHdXoiT4e0akhCMBk4jk-69" style="edgeStyle=orthogonalEdgeStyle;rounded=0;orthogonalLoop=1;jettySize=auto;html=1;exitX=1;exitY=0.5;exitDx=0;exitDy=0;entryX=1;entryY=0.5;entryDx=0;entryDy=0;" parent="aHdXoiT4e0akhCMBk4jk-64" source="aHdXoiT4e0akhCMBk4jk-65" target="aHdXoiT4e0akhCMBk4jk-66" edge="1">
          <mxGeometry relative="1" as="geometry" />
        </mxCell>
        <mxCell id="aHdXoiT4e0akhCMBk4jk-65" value="Variable Environment" style="rounded=0;whiteSpace=wrap;html=1;fillColor=#e1d5e7;strokeColor=#9673a6;" parent="aHdXoiT4e0akhCMBk4jk-64" vertex="1">
          <mxGeometry x="20" y="40" width="120" height="40" as="geometry" />
        </mxCell>
        <mxCell id="aHdXoiT4e0akhCMBk4jk-66" value="Environment Record" style="swimlane;whiteSpace=wrap;html=1;fillColor=#ffe6cc;strokeColor=#d79b00;" parent="aHdXoiT4e0akhCMBk4jk-64" vertex="1">
          <mxGeometry x="20" y="100" width="120" height="140" as="geometry" />
        </mxCell>
        <mxCell id="aHdXoiT4e0akhCMBk4jk-67" value="a" style="rounded=0;whiteSpace=wrap;html=1;" parent="aHdXoiT4e0akhCMBk4jk-66" vertex="1">
          <mxGeometry x="15" y="40" width="90" height="22.5" as="geometry" />
        </mxCell>
        <mxCell id="aHdXoiT4e0akhCMBk4jk-68" value="b = undefined" style="rounded=0;whiteSpace=wrap;html=1;" parent="aHdXoiT4e0akhCMBk4jk-66" vertex="1">
          <mxGeometry x="15" y="62.5" width="90" height="22.5" as="geometry" />
        </mxCell>
        <mxCell id="aHdXoiT4e0akhCMBk4jk-102" value="c() {}" style="rounded=0;whiteSpace=wrap;html=1;" parent="aHdXoiT4e0akhCMBk4jk-66" vertex="1">
          <mxGeometry x="15" y="85" width="90" height="22.5" as="geometry" />
        </mxCell>
        <mxCell id="aHdXoiT4e0akhCMBk4jk-103" value="d" style="rounded=0;whiteSpace=wrap;html=1;" parent="aHdXoiT4e0akhCMBk4jk-66" vertex="1">
          <mxGeometry x="15" y="107.5" width="90" height="22.5" as="geometry" />
        </mxCell>
        <mxCell id="aHdXoiT4e0akhCMBk4jk-70" value="Event Loop(4)" style="swimlane;whiteSpace=wrap;html=1;" parent="1" vertex="1">
          <mxGeometry x="910" y="1400" width="270" height="320" as="geometry" />
        </mxCell>
        <mxCell id="aHdXoiT4e0akhCMBk4jk-71" value="Execution Context" style="swimlane;whiteSpace=wrap;html=1;fillColor=#fff2cc;strokeColor=#d6b656;" parent="aHdXoiT4e0akhCMBk4jk-70" vertex="1">
          <mxGeometry x="20" y="40" width="180" height="220" as="geometry" />
        </mxCell>
        <mxCell id="aHdXoiT4e0akhCMBk4jk-73" value="Variable Environment" style="rounded=0;whiteSpace=wrap;html=1;fillColor=#e1d5e7;strokeColor=#9673a6;" parent="aHdXoiT4e0akhCMBk4jk-71" vertex="1">
          <mxGeometry x="20" y="40" width="120" height="40" as="geometry" />
        </mxCell>
        <mxCell id="aHdXoiT4e0akhCMBk4jk-74" value="Lexical&lt;div&gt;Environment&lt;/div&gt;" style="swimlane;whiteSpace=wrap;html=1;fillColor=#e1d5e7;strokeColor=#9673a6;" parent="aHdXoiT4e0akhCMBk4jk-71" vertex="1">
          <mxGeometry x="20" y="100" width="120" height="100" as="geometry" />
        </mxCell>
        <mxCell id="aHdXoiT4e0akhCMBk4jk-76" value="Record" style="rounded=0;whiteSpace=wrap;html=1;fillColor=#ffe6cc;strokeColor=#d79b00;" parent="aHdXoiT4e0akhCMBk4jk-74" vertex="1">
          <mxGeometry x="15" y="38.75" width="90" height="22.5" as="geometry" />
        </mxCell>
        <mxCell id="aHdXoiT4e0akhCMBk4jk-77" style="edgeStyle=orthogonalEdgeStyle;rounded=0;orthogonalLoop=1;jettySize=auto;html=1;exitX=1;exitY=0.75;exitDx=0;exitDy=0;entryX=0;entryY=0.5;entryDx=0;entryDy=0;" parent="1" source="aHdXoiT4e0akhCMBk4jk-66" target="aHdXoiT4e0akhCMBk4jk-76" edge="1">
          <mxGeometry relative="1" as="geometry" />
        </mxCell>
        <mxCell id="aHdXoiT4e0akhCMBk4jk-78" value="Event Loop(5)" style="swimlane;whiteSpace=wrap;html=1;" parent="1" vertex="1">
          <mxGeometry x="40" y="1740" width="270" height="320" as="geometry" />
        </mxCell>
        <mxCell id="aHdXoiT4e0akhCMBk4jk-79" value="Execution Context" style="swimlane;whiteSpace=wrap;html=1;fillColor=#fff2cc;strokeColor=#d6b656;" parent="aHdXoiT4e0akhCMBk4jk-78" vertex="1">
          <mxGeometry x="20" y="40" width="180" height="230" as="geometry" />
        </mxCell>
        <mxCell id="aHdXoiT4e0akhCMBk4jk-80" value="Variable Environment" style="rounded=0;whiteSpace=wrap;html=1;fillColor=#e1d5e7;strokeColor=#9673a6;" parent="aHdXoiT4e0akhCMBk4jk-79" vertex="1">
          <mxGeometry x="20" y="40" width="120" height="40" as="geometry" />
        </mxCell>
        <mxCell id="aHdXoiT4e0akhCMBk4jk-81" value="Lexical&lt;div&gt;Environment&lt;/div&gt;" style="swimlane;whiteSpace=wrap;html=1;fillColor=#e1d5e7;strokeColor=#9673a6;" parent="aHdXoiT4e0akhCMBk4jk-79" vertex="1">
          <mxGeometry x="20" y="100" width="120" height="110" as="geometry" />
        </mxCell>
        <mxCell id="aHdXoiT4e0akhCMBk4jk-82" value="Record" style="rounded=0;whiteSpace=wrap;html=1;fillColor=#ffe6cc;strokeColor=#d79b00;" parent="aHdXoiT4e0akhCMBk4jk-81" vertex="1">
          <mxGeometry x="15" y="38.75" width="90" height="22.5" as="geometry" />
        </mxCell>
        <mxCell id="aHdXoiT4e0akhCMBk4jk-83" value="Outer" style="rounded=0;whiteSpace=wrap;html=1;fillColor=#ffe6cc;strokeColor=#d79b00;" parent="aHdXoiT4e0akhCMBk4jk-81" vertex="1">
          <mxGeometry x="15" y="70" width="90" height="22.5" as="geometry" />
        </mxCell>
        <mxCell id="aHdXoiT4e0akhCMBk4jk-84" value="Event Loop(6)" style="swimlane;whiteSpace=wrap;html=1;" parent="1" vertex="1">
          <mxGeometry x="330" y="1740" width="270" height="320" as="geometry" />
        </mxCell>
        <mxCell id="aHdXoiT4e0akhCMBk4jk-85" value="Execution Context" style="swimlane;whiteSpace=wrap;html=1;fillColor=#fff2cc;strokeColor=#d6b656;" parent="aHdXoiT4e0akhCMBk4jk-84" vertex="1">
          <mxGeometry x="20" y="40" width="180" height="230" as="geometry" />
        </mxCell>
        <mxCell id="aHdXoiT4e0akhCMBk4jk-86" value="Variable Environment" style="rounded=0;whiteSpace=wrap;html=1;fillColor=#e1d5e7;strokeColor=#9673a6;" parent="aHdXoiT4e0akhCMBk4jk-85" vertex="1">
          <mxGeometry x="20" y="40" width="120" height="40" as="geometry" />
        </mxCell>
        <mxCell id="aHdXoiT4e0akhCMBk4jk-90" value="Lexical Environment" style="rounded=0;whiteSpace=wrap;html=1;fillColor=#e1d5e7;strokeColor=#9673a6;" parent="aHdXoiT4e0akhCMBk4jk-85" vertex="1">
          <mxGeometry x="20" y="95" width="120" height="40" as="geometry" />
        </mxCell>
        <mxCell id="aHdXoiT4e0akhCMBk4jk-92" style="edgeStyle=orthogonalEdgeStyle;rounded=0;orthogonalLoop=1;jettySize=auto;html=1;exitX=0;exitY=0.5;exitDx=0;exitDy=0;entryX=0;entryY=0.25;entryDx=0;entryDy=0;" parent="aHdXoiT4e0akhCMBk4jk-85" source="aHdXoiT4e0akhCMBk4jk-91" target="aHdXoiT4e0akhCMBk4jk-85" edge="1">
          <mxGeometry relative="1" as="geometry">
            <Array as="points">
              <mxPoint x="-10" y="170" />
              <mxPoint x="-10" y="57" />
            </Array>
          </mxGeometry>
        </mxCell>
        <mxCell id="aHdXoiT4e0akhCMBk4jk-91" value="ThisBinding" style="rounded=0;whiteSpace=wrap;html=1;fillColor=#e1d5e7;strokeColor=#9673a6;" parent="aHdXoiT4e0akhCMBk4jk-85" vertex="1">
          <mxGeometry x="20" y="150" width="120" height="40" as="geometry" />
        </mxCell>
        <mxCell id="aHdXoiT4e0akhCMBk4jk-93" value="Event Loop(7&lt;span style=&quot;background-color: initial;&quot;&gt;)&lt;/span&gt;" style="swimlane;whiteSpace=wrap;html=1;" parent="1" vertex="1">
          <mxGeometry x="620" y="1740" width="270" height="320" as="geometry" />
        </mxCell>
        <mxCell id="aHdXoiT4e0akhCMBk4jk-94" value="CallStack" style="swimlane;whiteSpace=wrap;html=1;fillColor=#dae8fc;strokeColor=#6c8ebf;" parent="aHdXoiT4e0akhCMBk4jk-93" vertex="1">
          <mxGeometry x="20" y="40" width="180" height="230" as="geometry" />
        </mxCell>
        <mxCell id="aHdXoiT4e0akhCMBk4jk-95" value="Execution Context" style="rounded=0;whiteSpace=wrap;html=1;fillColor=#fff2cc;strokeColor=#d6b656;" parent="aHdXoiT4e0akhCMBk4jk-94" vertex="1">
          <mxGeometry x="20" y="40" width="120" height="40" as="geometry" />
        </mxCell>
        <mxCell id="aHdXoiT4e0akhCMBk4jk-99" style="edgeStyle=orthogonalEdgeStyle;rounded=0;orthogonalLoop=1;jettySize=auto;html=1;exitX=1;exitY=0.5;exitDx=0;exitDy=0;entryX=0;entryY=0.5;entryDx=0;entryDy=0;" parent="1" source="aHdXoiT4e0akhCMBk4jk-85" target="aHdXoiT4e0akhCMBk4jk-95" edge="1">
          <mxGeometry relative="1" as="geometry" />
        </mxCell>
        <mxCell id="aHdXoiT4e0akhCMBk4jk-110" style="edgeStyle=orthogonalEdgeStyle;rounded=0;orthogonalLoop=1;jettySize=auto;html=1;entryX=0;entryY=0.5;entryDx=0;entryDy=0;" parent="1" source="aHdXoiT4e0akhCMBk4jk-104" target="aHdXoiT4e0akhCMBk4jk-109" edge="1">
          <mxGeometry relative="1" as="geometry" />
        </mxCell>
        <mxCell id="aHdXoiT4e0akhCMBk4jk-104" value="Event Loop" style="ellipse;shape=umlControl;whiteSpace=wrap;html=1;fontSize=20;fillColor=#d5e8d4;strokeColor=#82b366;" parent="1" vertex="1">
          <mxGeometry x="60" y="2160" width="140" height="160" as="geometry" />
        </mxCell>
        <mxCell id="aHdXoiT4e0akhCMBk4jk-105" value="let a = 1;&lt;div&gt;var b = 2;&lt;/div&gt;&lt;div&gt;function c() {}&lt;/div&gt;&lt;div&gt;let d = () =&amp;gt; {}&lt;/div&gt;" style="rounded=1;whiteSpace=wrap;html=1;" parent="1" vertex="1">
          <mxGeometry x="40" y="2080" width="120" height="60" as="geometry" />
        </mxCell>
        <mxCell id="aHdXoiT4e0akhCMBk4jk-106" style="edgeStyle=orthogonalEdgeStyle;rounded=0;orthogonalLoop=1;jettySize=auto;html=1;exitX=1;exitY=0.5;exitDx=0;exitDy=0;entryX=0.007;entryY=0.53;entryDx=0;entryDy=0;entryPerimeter=0;" parent="1" source="aHdXoiT4e0akhCMBk4jk-105" target="aHdXoiT4e0akhCMBk4jk-104" edge="1">
          <mxGeometry relative="1" as="geometry" />
        </mxCell>
        <mxCell id="aHdXoiT4e0akhCMBk4jk-107" value="JS execution(1&lt;span style=&quot;background-color: initial;&quot;&gt;)&lt;/span&gt;" style="swimlane;whiteSpace=wrap;html=1;" parent="1" vertex="1">
          <mxGeometry x="260" y="2080" width="270" height="320" as="geometry" />
        </mxCell>
        <mxCell id="aHdXoiT4e0akhCMBk4jk-108" value="CallStack" style="swimlane;whiteSpace=wrap;html=1;fillColor=#dae8fc;strokeColor=#6c8ebf;" parent="aHdXoiT4e0akhCMBk4jk-107" vertex="1">
          <mxGeometry x="20" y="40" width="180" height="230" as="geometry" />
        </mxCell>
        <mxCell id="aHdXoiT4e0akhCMBk4jk-109" value="Execution Context" style="rounded=0;whiteSpace=wrap;html=1;fillColor=#fff2cc;strokeColor=#d6b656;" parent="aHdXoiT4e0akhCMBk4jk-108" vertex="1">
          <mxGeometry x="14" y="178" width="120" height="40" as="geometry" />
        </mxCell>
        <mxCell id="aHdXoiT4e0akhCMBk4jk-111" value="JS execution(2)" style="swimlane;whiteSpace=wrap;html=1;" parent="1" vertex="1">
          <mxGeometry x="550" y="2080" width="270" height="320" as="geometry" />
        </mxCell>
        <mxCell id="aHdXoiT4e0akhCMBk4jk-112" value="Execution Context" style="swimlane;whiteSpace=wrap;html=1;fillColor=#fff2cc;strokeColor=#d6b656;" parent="aHdXoiT4e0akhCMBk4jk-111" vertex="1">
          <mxGeometry x="20" y="40" width="180" height="230" as="geometry" />
        </mxCell>
        <mxCell id="aHdXoiT4e0akhCMBk4jk-113" value="Variable Environment" style="rounded=0;whiteSpace=wrap;html=1;fillColor=#e1d5e7;strokeColor=#9673a6;" parent="aHdXoiT4e0akhCMBk4jk-112" vertex="1">
          <mxGeometry x="20" y="40" width="120" height="40" as="geometry" />
        </mxCell>
        <mxCell id="aHdXoiT4e0akhCMBk4jk-114" value="Lexical Environment" style="rounded=0;whiteSpace=wrap;html=1;fillColor=#e1d5e7;strokeColor=#9673a6;" parent="aHdXoiT4e0akhCMBk4jk-112" vertex="1">
          <mxGeometry x="20" y="95" width="120" height="40" as="geometry" />
        </mxCell>
        <mxCell id="aHdXoiT4e0akhCMBk4jk-116" value="ThisBinding" style="rounded=0;whiteSpace=wrap;html=1;fillColor=#e1d5e7;strokeColor=#9673a6;" parent="aHdXoiT4e0akhCMBk4jk-112" vertex="1">
          <mxGeometry x="20" y="150" width="120" height="40" as="geometry" />
        </mxCell>
        <mxCell id="aHdXoiT4e0akhCMBk4jk-117" style="edgeStyle=orthogonalEdgeStyle;rounded=0;orthogonalLoop=1;jettySize=auto;html=1;exitX=1;exitY=0.5;exitDx=0;exitDy=0;entryX=0;entryY=0.5;entryDx=0;entryDy=0;" parent="1" source="aHdXoiT4e0akhCMBk4jk-109" target="aHdXoiT4e0akhCMBk4jk-113" edge="1">
          <mxGeometry relative="1" as="geometry" />
        </mxCell>
        <mxCell id="aHdXoiT4e0akhCMBk4jk-118" value="JS execution(3)" style="swimlane;whiteSpace=wrap;html=1;" parent="1" vertex="1">
          <mxGeometry x="840" y="2080" width="270" height="320" as="geometry" />
        </mxCell>
        <mxCell id="aHdXoiT4e0akhCMBk4jk-119" value="Execution Context" style="swimlane;whiteSpace=wrap;html=1;fillColor=#fff2cc;strokeColor=#d6b656;" parent="aHdXoiT4e0akhCMBk4jk-118" vertex="1">
          <mxGeometry x="20" y="40" width="180" height="230" as="geometry" />
        </mxCell>
        <mxCell id="aHdXoiT4e0akhCMBk4jk-120" value="Variable Environment" style="rounded=0;whiteSpace=wrap;html=1;fillColor=#e1d5e7;strokeColor=#9673a6;" parent="aHdXoiT4e0akhCMBk4jk-119" vertex="1">
          <mxGeometry x="20" y="40" width="120" height="40" as="geometry" />
        </mxCell>
        <mxCell id="aHdXoiT4e0akhCMBk4jk-121" value="Lexical Environment" style="rounded=0;whiteSpace=wrap;html=1;fillColor=#e1d5e7;strokeColor=#9673a6;" parent="aHdXoiT4e0akhCMBk4jk-119" vertex="1">
          <mxGeometry x="20" y="95" width="120" height="40" as="geometry" />
        </mxCell>
        <mxCell id="aHdXoiT4e0akhCMBk4jk-122" value="ThisBinding" style="rounded=0;whiteSpace=wrap;html=1;fillColor=#e1d5e7;strokeColor=#9673a6;" parent="aHdXoiT4e0akhCMBk4jk-119" vertex="1">
          <mxGeometry x="20" y="150" width="120" height="40" as="geometry" />
        </mxCell>
        <mxCell id="aHdXoiT4e0akhCMBk4jk-123" style="edgeStyle=orthogonalEdgeStyle;rounded=0;orthogonalLoop=1;jettySize=auto;html=1;exitX=1;exitY=0.5;exitDx=0;exitDy=0;entryX=0;entryY=0.5;entryDx=0;entryDy=0;" parent="1" source="aHdXoiT4e0akhCMBk4jk-113" target="aHdXoiT4e0akhCMBk4jk-121" edge="1">
          <mxGeometry relative="1" as="geometry" />
        </mxCell>
        <mxCell id="aHdXoiT4e0akhCMBk4jk-124" value="JS execution(4)" style="swimlane;whiteSpace=wrap;html=1;" parent="1" vertex="1">
          <mxGeometry x="1130" y="2080" width="270" height="320" as="geometry" />
        </mxCell>
        <mxCell id="aHdXoiT4e0akhCMBk4jk-125" value="Execution Context" style="swimlane;whiteSpace=wrap;html=1;fillColor=#fff2cc;strokeColor=#d6b656;" parent="aHdXoiT4e0akhCMBk4jk-124" vertex="1">
          <mxGeometry x="20" y="40" width="180" height="230" as="geometry" />
        </mxCell>
        <mxCell id="aHdXoiT4e0akhCMBk4jk-126" value="Variable Environment" style="rounded=0;whiteSpace=wrap;html=1;fillColor=#e1d5e7;strokeColor=#9673a6;" parent="aHdXoiT4e0akhCMBk4jk-125" vertex="1">
          <mxGeometry x="20" y="40" width="120" height="40" as="geometry" />
        </mxCell>
        <mxCell id="aHdXoiT4e0akhCMBk4jk-127" value="Lexical&lt;div&gt;Environment&lt;/div&gt;" style="swimlane;whiteSpace=wrap;html=1;fillColor=#e1d5e7;strokeColor=#9673a6;" parent="aHdXoiT4e0akhCMBk4jk-125" vertex="1">
          <mxGeometry x="20" y="100" width="120" height="110" as="geometry" />
        </mxCell>
        <mxCell id="aHdXoiT4e0akhCMBk4jk-128" value="Record" style="rounded=0;whiteSpace=wrap;html=1;fillColor=#ffe6cc;strokeColor=#d79b00;" parent="aHdXoiT4e0akhCMBk4jk-127" vertex="1">
          <mxGeometry x="15" y="38.75" width="90" height="22.5" as="geometry" />
        </mxCell>
        <mxCell id="aHdXoiT4e0akhCMBk4jk-129" value="Outer" style="rounded=0;whiteSpace=wrap;html=1;fillColor=#ffe6cc;strokeColor=#d79b00;" parent="aHdXoiT4e0akhCMBk4jk-127" vertex="1">
          <mxGeometry x="15" y="70" width="90" height="22.5" as="geometry" />
        </mxCell>
        <mxCell id="aHdXoiT4e0akhCMBk4jk-130" style="edgeStyle=orthogonalEdgeStyle;rounded=0;orthogonalLoop=1;jettySize=auto;html=1;exitX=1;exitY=0.5;exitDx=0;exitDy=0;entryX=0;entryY=0.5;entryDx=0;entryDy=0;" parent="1" source="aHdXoiT4e0akhCMBk4jk-121" target="aHdXoiT4e0akhCMBk4jk-128" edge="1">
          <mxGeometry relative="1" as="geometry" />
        </mxCell>
        <mxCell id="aHdXoiT4e0akhCMBk4jk-174" style="edgeStyle=orthogonalEdgeStyle;rounded=0;orthogonalLoop=1;jettySize=auto;html=1;exitX=1;exitY=0.5;exitDx=0;exitDy=0;entryX=0;entryY=0.5;entryDx=0;entryDy=0;" parent="1" source="aHdXoiT4e0akhCMBk4jk-131" target="aHdXoiT4e0akhCMBk4jk-143" edge="1">
          <mxGeometry relative="1" as="geometry" />
        </mxCell>
        <mxCell id="aHdXoiT4e0akhCMBk4jk-131" value="JS execution(5)" style="swimlane;whiteSpace=wrap;html=1;" parent="1" vertex="1">
          <mxGeometry x="1420" y="2080" width="270" height="320" as="geometry" />
        </mxCell>
        <mxCell id="aHdXoiT4e0akhCMBk4jk-132" value="Execution Context" style="swimlane;whiteSpace=wrap;html=1;fillColor=#fff2cc;strokeColor=#d6b656;" parent="aHdXoiT4e0akhCMBk4jk-131" vertex="1">
          <mxGeometry x="20" y="40" width="180" height="260" as="geometry" />
        </mxCell>
        <mxCell id="aHdXoiT4e0akhCMBk4jk-134" value="Variable Environment" style="rounded=0;whiteSpace=wrap;html=1;fillColor=#e1d5e7;strokeColor=#9673a6;" parent="aHdXoiT4e0akhCMBk4jk-132" vertex="1">
          <mxGeometry x="20" y="40" width="120" height="40" as="geometry" />
        </mxCell>
        <mxCell id="aHdXoiT4e0akhCMBk4jk-135" value="Environment Record" style="swimlane;whiteSpace=wrap;html=1;fillColor=#ffe6cc;strokeColor=#d79b00;" parent="aHdXoiT4e0akhCMBk4jk-132" vertex="1">
          <mxGeometry x="20" y="100" width="120" height="140" as="geometry" />
        </mxCell>
        <mxCell id="aHdXoiT4e0akhCMBk4jk-136" value="a = 1" style="rounded=0;whiteSpace=wrap;html=1;" parent="aHdXoiT4e0akhCMBk4jk-135" vertex="1">
          <mxGeometry x="15" y="40" width="90" height="22.5" as="geometry" />
        </mxCell>
        <mxCell id="aHdXoiT4e0akhCMBk4jk-137" value="b = undefined" style="rounded=0;whiteSpace=wrap;html=1;" parent="aHdXoiT4e0akhCMBk4jk-135" vertex="1">
          <mxGeometry x="15" y="62.5" width="90" height="22.5" as="geometry" />
        </mxCell>
        <mxCell id="aHdXoiT4e0akhCMBk4jk-138" value="c() {}" style="rounded=0;whiteSpace=wrap;html=1;" parent="aHdXoiT4e0akhCMBk4jk-135" vertex="1">
          <mxGeometry x="15" y="85" width="90" height="22.5" as="geometry" />
        </mxCell>
        <mxCell id="aHdXoiT4e0akhCMBk4jk-139" value="d" style="rounded=0;whiteSpace=wrap;html=1;" parent="aHdXoiT4e0akhCMBk4jk-135" vertex="1">
          <mxGeometry x="15" y="107.5" width="90" height="22.5" as="geometry" />
        </mxCell>
        <mxCell id="aHdXoiT4e0akhCMBk4jk-140" style="edgeStyle=orthogonalEdgeStyle;rounded=0;orthogonalLoop=1;jettySize=auto;html=1;exitX=1;exitY=0.5;exitDx=0;exitDy=0;entryX=0;entryY=0.5;entryDx=0;entryDy=0;" parent="1" source="aHdXoiT4e0akhCMBk4jk-128" target="aHdXoiT4e0akhCMBk4jk-136" edge="1">
          <mxGeometry relative="1" as="geometry" />
        </mxCell>
        <mxCell id="aHdXoiT4e0akhCMBk4jk-143" value="JS execution(1&lt;span style=&quot;background-color: initial;&quot;&gt;)&lt;/span&gt;" style="swimlane;whiteSpace=wrap;html=1;" parent="1" vertex="1">
          <mxGeometry x="260" y="2460" width="270" height="320" as="geometry" />
        </mxCell>
        <mxCell id="aHdXoiT4e0akhCMBk4jk-144" value="CallStack" style="swimlane;whiteSpace=wrap;html=1;fillColor=#dae8fc;strokeColor=#6c8ebf;" parent="aHdXoiT4e0akhCMBk4jk-143" vertex="1">
          <mxGeometry x="20" y="40" width="180" height="230" as="geometry" />
        </mxCell>
        <mxCell id="aHdXoiT4e0akhCMBk4jk-145" value="Execution Context" style="rounded=0;whiteSpace=wrap;html=1;fillColor=#fff2cc;strokeColor=#d6b656;" parent="aHdXoiT4e0akhCMBk4jk-144" vertex="1">
          <mxGeometry x="14" y="178" width="120" height="40" as="geometry" />
        </mxCell>
        <mxCell id="aHdXoiT4e0akhCMBk4jk-146" value="JS execution(2)" style="swimlane;whiteSpace=wrap;html=1;" parent="1" vertex="1">
          <mxGeometry x="550" y="2460" width="270" height="320" as="geometry" />
        </mxCell>
        <mxCell id="aHdXoiT4e0akhCMBk4jk-147" value="Execution Context" style="swimlane;whiteSpace=wrap;html=1;fillColor=#fff2cc;strokeColor=#d6b656;" parent="aHdXoiT4e0akhCMBk4jk-146" vertex="1">
          <mxGeometry x="20" y="40" width="180" height="230" as="geometry" />
        </mxCell>
        <mxCell id="aHdXoiT4e0akhCMBk4jk-148" value="Variable Environment" style="rounded=0;whiteSpace=wrap;html=1;fillColor=#e1d5e7;strokeColor=#9673a6;" parent="aHdXoiT4e0akhCMBk4jk-147" vertex="1">
          <mxGeometry x="20" y="40" width="120" height="40" as="geometry" />
        </mxCell>
        <mxCell id="aHdXoiT4e0akhCMBk4jk-149" value="Lexical Environment" style="rounded=0;whiteSpace=wrap;html=1;fillColor=#e1d5e7;strokeColor=#9673a6;" parent="aHdXoiT4e0akhCMBk4jk-147" vertex="1">
          <mxGeometry x="20" y="95" width="120" height="40" as="geometry" />
        </mxCell>
        <mxCell id="aHdXoiT4e0akhCMBk4jk-150" value="ThisBinding" style="rounded=0;whiteSpace=wrap;html=1;fillColor=#e1d5e7;strokeColor=#9673a6;" parent="aHdXoiT4e0akhCMBk4jk-147" vertex="1">
          <mxGeometry x="20" y="150" width="120" height="40" as="geometry" />
        </mxCell>
        <mxCell id="aHdXoiT4e0akhCMBk4jk-151" style="edgeStyle=orthogonalEdgeStyle;rounded=0;orthogonalLoop=1;jettySize=auto;html=1;exitX=1;exitY=0.5;exitDx=0;exitDy=0;entryX=0;entryY=0.5;entryDx=0;entryDy=0;" parent="1" source="aHdXoiT4e0akhCMBk4jk-145" target="aHdXoiT4e0akhCMBk4jk-148" edge="1">
          <mxGeometry relative="1" as="geometry" />
        </mxCell>
        <mxCell id="aHdXoiT4e0akhCMBk4jk-152" value="JS execution(3)" style="swimlane;whiteSpace=wrap;html=1;" parent="1" vertex="1">
          <mxGeometry x="840" y="2460" width="270" height="320" as="geometry" />
        </mxCell>
        <mxCell id="aHdXoiT4e0akhCMBk4jk-153" value="Execution Context" style="swimlane;whiteSpace=wrap;html=1;fillColor=#fff2cc;strokeColor=#d6b656;" parent="aHdXoiT4e0akhCMBk4jk-152" vertex="1">
          <mxGeometry x="20" y="40" width="180" height="230" as="geometry" />
        </mxCell>
        <mxCell id="aHdXoiT4e0akhCMBk4jk-154" value="Variable Environment" style="rounded=0;whiteSpace=wrap;html=1;fillColor=#e1d5e7;strokeColor=#9673a6;" parent="aHdXoiT4e0akhCMBk4jk-153" vertex="1">
          <mxGeometry x="20" y="40" width="120" height="40" as="geometry" />
        </mxCell>
        <mxCell id="aHdXoiT4e0akhCMBk4jk-155" value="Lexical Environment" style="rounded=0;whiteSpace=wrap;html=1;fillColor=#e1d5e7;strokeColor=#9673a6;" parent="aHdXoiT4e0akhCMBk4jk-153" vertex="1">
          <mxGeometry x="20" y="95" width="120" height="40" as="geometry" />
        </mxCell>
        <mxCell id="aHdXoiT4e0akhCMBk4jk-156" value="ThisBinding" style="rounded=0;whiteSpace=wrap;html=1;fillColor=#e1d5e7;strokeColor=#9673a6;" parent="aHdXoiT4e0akhCMBk4jk-153" vertex="1">
          <mxGeometry x="20" y="150" width="120" height="40" as="geometry" />
        </mxCell>
        <mxCell id="aHdXoiT4e0akhCMBk4jk-157" style="edgeStyle=orthogonalEdgeStyle;rounded=0;orthogonalLoop=1;jettySize=auto;html=1;exitX=1;exitY=0.5;exitDx=0;exitDy=0;entryX=0;entryY=0.5;entryDx=0;entryDy=0;" parent="1" source="aHdXoiT4e0akhCMBk4jk-148" target="aHdXoiT4e0akhCMBk4jk-155" edge="1">
          <mxGeometry relative="1" as="geometry" />
        </mxCell>
        <mxCell id="aHdXoiT4e0akhCMBk4jk-158" value="JS execution(4)" style="swimlane;whiteSpace=wrap;html=1;" parent="1" vertex="1">
          <mxGeometry x="1130" y="2460" width="270" height="320" as="geometry" />
        </mxCell>
        <mxCell id="aHdXoiT4e0akhCMBk4jk-159" value="Execution Context" style="swimlane;whiteSpace=wrap;html=1;fillColor=#fff2cc;strokeColor=#d6b656;" parent="aHdXoiT4e0akhCMBk4jk-158" vertex="1">
          <mxGeometry x="20" y="40" width="180" height="230" as="geometry" />
        </mxCell>
        <mxCell id="aHdXoiT4e0akhCMBk4jk-160" value="Variable Environment" style="rounded=0;whiteSpace=wrap;html=1;fillColor=#e1d5e7;strokeColor=#9673a6;" parent="aHdXoiT4e0akhCMBk4jk-159" vertex="1">
          <mxGeometry x="20" y="40" width="120" height="40" as="geometry" />
        </mxCell>
        <mxCell id="aHdXoiT4e0akhCMBk4jk-161" value="Lexical&lt;div&gt;Environment&lt;/div&gt;" style="swimlane;whiteSpace=wrap;html=1;fillColor=#e1d5e7;strokeColor=#9673a6;" parent="aHdXoiT4e0akhCMBk4jk-159" vertex="1">
          <mxGeometry x="20" y="100" width="120" height="110" as="geometry" />
        </mxCell>
        <mxCell id="aHdXoiT4e0akhCMBk4jk-162" value="Record" style="rounded=0;whiteSpace=wrap;html=1;fillColor=#ffe6cc;strokeColor=#d79b00;" parent="aHdXoiT4e0akhCMBk4jk-161" vertex="1">
          <mxGeometry x="15" y="38.75" width="90" height="22.5" as="geometry" />
        </mxCell>
        <mxCell id="aHdXoiT4e0akhCMBk4jk-163" value="Outer" style="rounded=0;whiteSpace=wrap;html=1;fillColor=#ffe6cc;strokeColor=#d79b00;" parent="aHdXoiT4e0akhCMBk4jk-161" vertex="1">
          <mxGeometry x="15" y="70" width="90" height="22.5" as="geometry" />
        </mxCell>
        <mxCell id="aHdXoiT4e0akhCMBk4jk-164" style="edgeStyle=orthogonalEdgeStyle;rounded=0;orthogonalLoop=1;jettySize=auto;html=1;exitX=1;exitY=0.5;exitDx=0;exitDy=0;entryX=0;entryY=0.5;entryDx=0;entryDy=0;" parent="1" source="aHdXoiT4e0akhCMBk4jk-155" target="aHdXoiT4e0akhCMBk4jk-162" edge="1">
          <mxGeometry relative="1" as="geometry" />
        </mxCell>
        <mxCell id="aHdXoiT4e0akhCMBk4jk-206" style="edgeStyle=orthogonalEdgeStyle;rounded=0;orthogonalLoop=1;jettySize=auto;html=1;exitX=1;exitY=0.5;exitDx=0;exitDy=0;entryX=0;entryY=0.5;entryDx=0;entryDy=0;" parent="1" source="aHdXoiT4e0akhCMBk4jk-165" target="aHdXoiT4e0akhCMBk4jk-175" edge="1">
          <mxGeometry relative="1" as="geometry" />
        </mxCell>
        <mxCell id="aHdXoiT4e0akhCMBk4jk-165" value="JS execution(5)" style="swimlane;whiteSpace=wrap;html=1;" parent="1" vertex="1">
          <mxGeometry x="1420" y="2460" width="270" height="320" as="geometry" />
        </mxCell>
        <mxCell id="aHdXoiT4e0akhCMBk4jk-166" value="Execution Context" style="swimlane;whiteSpace=wrap;html=1;fillColor=#fff2cc;strokeColor=#d6b656;" parent="aHdXoiT4e0akhCMBk4jk-165" vertex="1">
          <mxGeometry x="20" y="40" width="180" height="260" as="geometry" />
        </mxCell>
        <mxCell id="aHdXoiT4e0akhCMBk4jk-167" value="Variable Environment" style="rounded=0;whiteSpace=wrap;html=1;fillColor=#e1d5e7;strokeColor=#9673a6;" parent="aHdXoiT4e0akhCMBk4jk-166" vertex="1">
          <mxGeometry x="20" y="40" width="120" height="40" as="geometry" />
        </mxCell>
        <mxCell id="aHdXoiT4e0akhCMBk4jk-168" value="Environment Record" style="swimlane;whiteSpace=wrap;html=1;fillColor=#ffe6cc;strokeColor=#d79b00;" parent="aHdXoiT4e0akhCMBk4jk-166" vertex="1">
          <mxGeometry x="20" y="100" width="120" height="140" as="geometry" />
        </mxCell>
        <mxCell id="aHdXoiT4e0akhCMBk4jk-169" value="a = 1" style="rounded=0;whiteSpace=wrap;html=1;" parent="aHdXoiT4e0akhCMBk4jk-168" vertex="1">
          <mxGeometry x="15" y="40" width="90" height="22.5" as="geometry" />
        </mxCell>
        <mxCell id="aHdXoiT4e0akhCMBk4jk-170" value="b = 2" style="rounded=0;whiteSpace=wrap;html=1;" parent="aHdXoiT4e0akhCMBk4jk-168" vertex="1">
          <mxGeometry x="15" y="62.5" width="90" height="22.5" as="geometry" />
        </mxCell>
        <mxCell id="aHdXoiT4e0akhCMBk4jk-171" value="c() {}" style="rounded=0;whiteSpace=wrap;html=1;" parent="aHdXoiT4e0akhCMBk4jk-168" vertex="1">
          <mxGeometry x="15" y="85" width="90" height="22.5" as="geometry" />
        </mxCell>
        <mxCell id="aHdXoiT4e0akhCMBk4jk-172" value="d" style="rounded=0;whiteSpace=wrap;html=1;" parent="aHdXoiT4e0akhCMBk4jk-168" vertex="1">
          <mxGeometry x="15" y="107.5" width="90" height="22.5" as="geometry" />
        </mxCell>
        <mxCell id="aHdXoiT4e0akhCMBk4jk-173" style="edgeStyle=orthogonalEdgeStyle;rounded=0;orthogonalLoop=1;jettySize=auto;html=1;exitX=1;exitY=0.5;exitDx=0;exitDy=0;entryX=0;entryY=0.5;entryDx=0;entryDy=0;" parent="1" source="aHdXoiT4e0akhCMBk4jk-162" target="aHdXoiT4e0akhCMBk4jk-170" edge="1">
          <mxGeometry relative="1" as="geometry" />
        </mxCell>
        <mxCell id="aHdXoiT4e0akhCMBk4jk-175" value="JS execution(1&lt;span style=&quot;background-color: initial;&quot;&gt;)&lt;/span&gt;" style="swimlane;whiteSpace=wrap;html=1;" parent="1" vertex="1">
          <mxGeometry x="260" y="2840" width="270" height="320" as="geometry" />
        </mxCell>
        <mxCell id="aHdXoiT4e0akhCMBk4jk-176" value="CallStack" style="swimlane;whiteSpace=wrap;html=1;fillColor=#dae8fc;strokeColor=#6c8ebf;" parent="aHdXoiT4e0akhCMBk4jk-175" vertex="1">
          <mxGeometry x="20" y="40" width="180" height="230" as="geometry" />
        </mxCell>
        <mxCell id="aHdXoiT4e0akhCMBk4jk-177" value="Execution Context" style="rounded=0;whiteSpace=wrap;html=1;fillColor=#fff2cc;strokeColor=#d6b656;" parent="aHdXoiT4e0akhCMBk4jk-176" vertex="1">
          <mxGeometry x="14" y="178" width="120" height="40" as="geometry" />
        </mxCell>
        <mxCell id="aHdXoiT4e0akhCMBk4jk-178" value="JS execution(2)" style="swimlane;whiteSpace=wrap;html=1;" parent="1" vertex="1">
          <mxGeometry x="550" y="2840" width="270" height="320" as="geometry" />
        </mxCell>
        <mxCell id="aHdXoiT4e0akhCMBk4jk-179" value="Execution Context" style="swimlane;whiteSpace=wrap;html=1;fillColor=#fff2cc;strokeColor=#d6b656;" parent="aHdXoiT4e0akhCMBk4jk-178" vertex="1">
          <mxGeometry x="20" y="40" width="180" height="230" as="geometry" />
        </mxCell>
        <mxCell id="aHdXoiT4e0akhCMBk4jk-180" value="Variable Environment" style="rounded=0;whiteSpace=wrap;html=1;fillColor=#e1d5e7;strokeColor=#9673a6;" parent="aHdXoiT4e0akhCMBk4jk-179" vertex="1">
          <mxGeometry x="20" y="40" width="120" height="40" as="geometry" />
        </mxCell>
        <mxCell id="aHdXoiT4e0akhCMBk4jk-181" value="Lexical Environment" style="rounded=0;whiteSpace=wrap;html=1;fillColor=#e1d5e7;strokeColor=#9673a6;" parent="aHdXoiT4e0akhCMBk4jk-179" vertex="1">
          <mxGeometry x="20" y="95" width="120" height="40" as="geometry" />
        </mxCell>
        <mxCell id="aHdXoiT4e0akhCMBk4jk-182" value="ThisBinding" style="rounded=0;whiteSpace=wrap;html=1;fillColor=#e1d5e7;strokeColor=#9673a6;" parent="aHdXoiT4e0akhCMBk4jk-179" vertex="1">
          <mxGeometry x="20" y="150" width="120" height="40" as="geometry" />
        </mxCell>
        <mxCell id="aHdXoiT4e0akhCMBk4jk-183" style="edgeStyle=orthogonalEdgeStyle;rounded=0;orthogonalLoop=1;jettySize=auto;html=1;exitX=1;exitY=0.5;exitDx=0;exitDy=0;entryX=0;entryY=0.5;entryDx=0;entryDy=0;" parent="1" source="aHdXoiT4e0akhCMBk4jk-177" target="aHdXoiT4e0akhCMBk4jk-180" edge="1">
          <mxGeometry relative="1" as="geometry" />
        </mxCell>
        <mxCell id="aHdXoiT4e0akhCMBk4jk-184" value="JS execution(3)" style="swimlane;whiteSpace=wrap;html=1;" parent="1" vertex="1">
          <mxGeometry x="840" y="2840" width="270" height="320" as="geometry" />
        </mxCell>
        <mxCell id="aHdXoiT4e0akhCMBk4jk-185" value="Execution Context" style="swimlane;whiteSpace=wrap;html=1;fillColor=#fff2cc;strokeColor=#d6b656;" parent="aHdXoiT4e0akhCMBk4jk-184" vertex="1">
          <mxGeometry x="20" y="40" width="180" height="230" as="geometry" />
        </mxCell>
        <mxCell id="aHdXoiT4e0akhCMBk4jk-186" value="Variable Environment" style="rounded=0;whiteSpace=wrap;html=1;fillColor=#e1d5e7;strokeColor=#9673a6;" parent="aHdXoiT4e0akhCMBk4jk-185" vertex="1">
          <mxGeometry x="20" y="40" width="120" height="40" as="geometry" />
        </mxCell>
        <mxCell id="aHdXoiT4e0akhCMBk4jk-187" value="Lexical Environment" style="rounded=0;whiteSpace=wrap;html=1;fillColor=#e1d5e7;strokeColor=#9673a6;" parent="aHdXoiT4e0akhCMBk4jk-185" vertex="1">
          <mxGeometry x="20" y="95" width="120" height="40" as="geometry" />
        </mxCell>
        <mxCell id="aHdXoiT4e0akhCMBk4jk-188" value="ThisBinding" style="rounded=0;whiteSpace=wrap;html=1;fillColor=#e1d5e7;strokeColor=#9673a6;" parent="aHdXoiT4e0akhCMBk4jk-185" vertex="1">
          <mxGeometry x="20" y="150" width="120" height="40" as="geometry" />
        </mxCell>
        <mxCell id="aHdXoiT4e0akhCMBk4jk-189" style="edgeStyle=orthogonalEdgeStyle;rounded=0;orthogonalLoop=1;jettySize=auto;html=1;exitX=1;exitY=0.5;exitDx=0;exitDy=0;entryX=0;entryY=0.5;entryDx=0;entryDy=0;" parent="1" source="aHdXoiT4e0akhCMBk4jk-180" target="aHdXoiT4e0akhCMBk4jk-187" edge="1">
          <mxGeometry relative="1" as="geometry" />
        </mxCell>
        <mxCell id="aHdXoiT4e0akhCMBk4jk-190" value="JS execution(4)" style="swimlane;whiteSpace=wrap;html=1;" parent="1" vertex="1">
          <mxGeometry x="1130" y="2840" width="270" height="320" as="geometry" />
        </mxCell>
        <mxCell id="aHdXoiT4e0akhCMBk4jk-191" value="Execution Context" style="swimlane;whiteSpace=wrap;html=1;fillColor=#fff2cc;strokeColor=#d6b656;" parent="aHdXoiT4e0akhCMBk4jk-190" vertex="1">
          <mxGeometry x="20" y="40" width="180" height="230" as="geometry" />
        </mxCell>
        <mxCell id="aHdXoiT4e0akhCMBk4jk-192" value="Variable Environment" style="rounded=0;whiteSpace=wrap;html=1;fillColor=#e1d5e7;strokeColor=#9673a6;" parent="aHdXoiT4e0akhCMBk4jk-191" vertex="1">
          <mxGeometry x="20" y="40" width="120" height="40" as="geometry" />
        </mxCell>
        <mxCell id="aHdXoiT4e0akhCMBk4jk-193" value="Lexical&lt;div&gt;Environment&lt;/div&gt;" style="swimlane;whiteSpace=wrap;html=1;fillColor=#e1d5e7;strokeColor=#9673a6;" parent="aHdXoiT4e0akhCMBk4jk-191" vertex="1">
          <mxGeometry x="20" y="100" width="120" height="110" as="geometry" />
        </mxCell>
        <mxCell id="aHdXoiT4e0akhCMBk4jk-194" value="Record" style="rounded=0;whiteSpace=wrap;html=1;fillColor=#ffe6cc;strokeColor=#d79b00;" parent="aHdXoiT4e0akhCMBk4jk-193" vertex="1">
          <mxGeometry x="15" y="38.75" width="90" height="22.5" as="geometry" />
        </mxCell>
        <mxCell id="aHdXoiT4e0akhCMBk4jk-195" value="Outer" style="rounded=0;whiteSpace=wrap;html=1;fillColor=#ffe6cc;strokeColor=#d79b00;" parent="aHdXoiT4e0akhCMBk4jk-193" vertex="1">
          <mxGeometry x="15" y="70" width="90" height="22.5" as="geometry" />
        </mxCell>
        <mxCell id="aHdXoiT4e0akhCMBk4jk-196" style="edgeStyle=orthogonalEdgeStyle;rounded=0;orthogonalLoop=1;jettySize=auto;html=1;exitX=1;exitY=0.5;exitDx=0;exitDy=0;entryX=0;entryY=0.5;entryDx=0;entryDy=0;" parent="1" source="aHdXoiT4e0akhCMBk4jk-187" target="aHdXoiT4e0akhCMBk4jk-194" edge="1">
          <mxGeometry relative="1" as="geometry" />
        </mxCell>
        <mxCell id="aHdXoiT4e0akhCMBk4jk-238" style="edgeStyle=orthogonalEdgeStyle;rounded=0;orthogonalLoop=1;jettySize=auto;html=1;exitX=1;exitY=0.5;exitDx=0;exitDy=0;entryX=0;entryY=0.5;entryDx=0;entryDy=0;" parent="1" source="aHdXoiT4e0akhCMBk4jk-197" target="aHdXoiT4e0akhCMBk4jk-207" edge="1">
          <mxGeometry relative="1" as="geometry" />
        </mxCell>
        <mxCell id="aHdXoiT4e0akhCMBk4jk-197" value="JS execution(5)" style="swimlane;whiteSpace=wrap;html=1;" parent="1" vertex="1">
          <mxGeometry x="1420" y="2840" width="270" height="320" as="geometry" />
        </mxCell>
        <mxCell id="aHdXoiT4e0akhCMBk4jk-198" value="Execution Context" style="swimlane;whiteSpace=wrap;html=1;fillColor=#fff2cc;strokeColor=#d6b656;" parent="aHdXoiT4e0akhCMBk4jk-197" vertex="1">
          <mxGeometry x="20" y="40" width="180" height="260" as="geometry" />
        </mxCell>
        <mxCell id="aHdXoiT4e0akhCMBk4jk-199" value="Variable Environment" style="rounded=0;whiteSpace=wrap;html=1;fillColor=#e1d5e7;strokeColor=#9673a6;" parent="aHdXoiT4e0akhCMBk4jk-198" vertex="1">
          <mxGeometry x="20" y="40" width="120" height="40" as="geometry" />
        </mxCell>
        <mxCell id="aHdXoiT4e0akhCMBk4jk-200" value="Environment Record" style="swimlane;whiteSpace=wrap;html=1;fillColor=#ffe6cc;strokeColor=#d79b00;" parent="aHdXoiT4e0akhCMBk4jk-198" vertex="1">
          <mxGeometry x="20" y="100" width="120" height="140" as="geometry" />
        </mxCell>
        <mxCell id="aHdXoiT4e0akhCMBk4jk-201" value="a = 1" style="rounded=0;whiteSpace=wrap;html=1;" parent="aHdXoiT4e0akhCMBk4jk-200" vertex="1">
          <mxGeometry x="15" y="40" width="90" height="22.5" as="geometry" />
        </mxCell>
        <mxCell id="aHdXoiT4e0akhCMBk4jk-202" value="b = 2" style="rounded=0;whiteSpace=wrap;html=1;" parent="aHdXoiT4e0akhCMBk4jk-200" vertex="1">
          <mxGeometry x="15" y="62.5" width="90" height="22.5" as="geometry" />
        </mxCell>
        <mxCell id="aHdXoiT4e0akhCMBk4jk-203" value="c() {}" style="rounded=0;whiteSpace=wrap;html=1;" parent="aHdXoiT4e0akhCMBk4jk-200" vertex="1">
          <mxGeometry x="15" y="85" width="90" height="22.5" as="geometry" />
        </mxCell>
        <mxCell id="aHdXoiT4e0akhCMBk4jk-204" value="d" style="rounded=0;whiteSpace=wrap;html=1;" parent="aHdXoiT4e0akhCMBk4jk-200" vertex="1">
          <mxGeometry x="15" y="107.5" width="90" height="22.5" as="geometry" />
        </mxCell>
        <mxCell id="aHdXoiT4e0akhCMBk4jk-205" style="edgeStyle=orthogonalEdgeStyle;rounded=0;orthogonalLoop=1;jettySize=auto;html=1;exitX=1;exitY=0.5;exitDx=0;exitDy=0;entryX=0;entryY=0.5;entryDx=0;entryDy=0;" parent="1" source="aHdXoiT4e0akhCMBk4jk-194" target="aHdXoiT4e0akhCMBk4jk-203" edge="1">
          <mxGeometry relative="1" as="geometry" />
        </mxCell>
        <mxCell id="aHdXoiT4e0akhCMBk4jk-207" value="JS execution(1&lt;span style=&quot;background-color: initial;&quot;&gt;)&lt;/span&gt;" style="swimlane;whiteSpace=wrap;html=1;" parent="1" vertex="1">
          <mxGeometry x="260" y="3200" width="270" height="320" as="geometry" />
        </mxCell>
        <mxCell id="aHdXoiT4e0akhCMBk4jk-208" value="CallStack" style="swimlane;whiteSpace=wrap;html=1;fillColor=#dae8fc;strokeColor=#6c8ebf;" parent="aHdXoiT4e0akhCMBk4jk-207" vertex="1">
          <mxGeometry x="20" y="40" width="180" height="230" as="geometry" />
        </mxCell>
        <mxCell id="aHdXoiT4e0akhCMBk4jk-209" value="Execution Context" style="rounded=0;whiteSpace=wrap;html=1;fillColor=#fff2cc;strokeColor=#d6b656;" parent="aHdXoiT4e0akhCMBk4jk-208" vertex="1">
          <mxGeometry x="14" y="178" width="120" height="40" as="geometry" />
        </mxCell>
        <mxCell id="aHdXoiT4e0akhCMBk4jk-210" value="JS execution(2)" style="swimlane;whiteSpace=wrap;html=1;" parent="1" vertex="1">
          <mxGeometry x="550" y="3200" width="270" height="320" as="geometry" />
        </mxCell>
        <mxCell id="aHdXoiT4e0akhCMBk4jk-211" value="Execution Context" style="swimlane;whiteSpace=wrap;html=1;fillColor=#fff2cc;strokeColor=#d6b656;" parent="aHdXoiT4e0akhCMBk4jk-210" vertex="1">
          <mxGeometry x="20" y="40" width="180" height="230" as="geometry" />
        </mxCell>
        <mxCell id="aHdXoiT4e0akhCMBk4jk-212" value="Variable Environment" style="rounded=0;whiteSpace=wrap;html=1;fillColor=#e1d5e7;strokeColor=#9673a6;" parent="aHdXoiT4e0akhCMBk4jk-211" vertex="1">
          <mxGeometry x="20" y="40" width="120" height="40" as="geometry" />
        </mxCell>
        <mxCell id="aHdXoiT4e0akhCMBk4jk-213" value="Lexical Environment" style="rounded=0;whiteSpace=wrap;html=1;fillColor=#e1d5e7;strokeColor=#9673a6;" parent="aHdXoiT4e0akhCMBk4jk-211" vertex="1">
          <mxGeometry x="20" y="95" width="120" height="40" as="geometry" />
        </mxCell>
        <mxCell id="aHdXoiT4e0akhCMBk4jk-214" value="ThisBinding" style="rounded=0;whiteSpace=wrap;html=1;fillColor=#e1d5e7;strokeColor=#9673a6;" parent="aHdXoiT4e0akhCMBk4jk-211" vertex="1">
          <mxGeometry x="20" y="150" width="120" height="40" as="geometry" />
        </mxCell>
        <mxCell id="aHdXoiT4e0akhCMBk4jk-215" style="edgeStyle=orthogonalEdgeStyle;rounded=0;orthogonalLoop=1;jettySize=auto;html=1;exitX=1;exitY=0.5;exitDx=0;exitDy=0;entryX=0;entryY=0.5;entryDx=0;entryDy=0;" parent="1" source="aHdXoiT4e0akhCMBk4jk-209" target="aHdXoiT4e0akhCMBk4jk-212" edge="1">
          <mxGeometry relative="1" as="geometry" />
        </mxCell>
        <mxCell id="aHdXoiT4e0akhCMBk4jk-216" value="JS execution(3)" style="swimlane;whiteSpace=wrap;html=1;" parent="1" vertex="1">
          <mxGeometry x="840" y="3200" width="270" height="320" as="geometry" />
        </mxCell>
        <mxCell id="aHdXoiT4e0akhCMBk4jk-217" value="Execution Context" style="swimlane;whiteSpace=wrap;html=1;fillColor=#fff2cc;strokeColor=#d6b656;" parent="aHdXoiT4e0akhCMBk4jk-216" vertex="1">
          <mxGeometry x="20" y="40" width="180" height="230" as="geometry" />
        </mxCell>
        <mxCell id="aHdXoiT4e0akhCMBk4jk-218" value="Variable Environment" style="rounded=0;whiteSpace=wrap;html=1;fillColor=#e1d5e7;strokeColor=#9673a6;" parent="aHdXoiT4e0akhCMBk4jk-217" vertex="1">
          <mxGeometry x="20" y="40" width="120" height="40" as="geometry" />
        </mxCell>
        <mxCell id="aHdXoiT4e0akhCMBk4jk-219" value="Lexical Environment" style="rounded=0;whiteSpace=wrap;html=1;fillColor=#e1d5e7;strokeColor=#9673a6;" parent="aHdXoiT4e0akhCMBk4jk-217" vertex="1">
          <mxGeometry x="20" y="95" width="120" height="40" as="geometry" />
        </mxCell>
        <mxCell id="aHdXoiT4e0akhCMBk4jk-220" value="ThisBinding" style="rounded=0;whiteSpace=wrap;html=1;fillColor=#e1d5e7;strokeColor=#9673a6;" parent="aHdXoiT4e0akhCMBk4jk-217" vertex="1">
          <mxGeometry x="20" y="150" width="120" height="40" as="geometry" />
        </mxCell>
        <mxCell id="aHdXoiT4e0akhCMBk4jk-221" style="edgeStyle=orthogonalEdgeStyle;rounded=0;orthogonalLoop=1;jettySize=auto;html=1;exitX=1;exitY=0.5;exitDx=0;exitDy=0;entryX=0;entryY=0.5;entryDx=0;entryDy=0;" parent="1" source="aHdXoiT4e0akhCMBk4jk-212" target="aHdXoiT4e0akhCMBk4jk-219" edge="1">
          <mxGeometry relative="1" as="geometry" />
        </mxCell>
        <mxCell id="aHdXoiT4e0akhCMBk4jk-222" value="JS execution(4)" style="swimlane;whiteSpace=wrap;html=1;" parent="1" vertex="1">
          <mxGeometry x="1130" y="3200" width="270" height="320" as="geometry" />
        </mxCell>
        <mxCell id="aHdXoiT4e0akhCMBk4jk-223" value="Execution Context" style="swimlane;whiteSpace=wrap;html=1;fillColor=#fff2cc;strokeColor=#d6b656;" parent="aHdXoiT4e0akhCMBk4jk-222" vertex="1">
          <mxGeometry x="20" y="40" width="180" height="230" as="geometry" />
        </mxCell>
        <mxCell id="aHdXoiT4e0akhCMBk4jk-224" value="Variable Environment" style="rounded=0;whiteSpace=wrap;html=1;fillColor=#e1d5e7;strokeColor=#9673a6;" parent="aHdXoiT4e0akhCMBk4jk-223" vertex="1">
          <mxGeometry x="20" y="40" width="120" height="40" as="geometry" />
        </mxCell>
        <mxCell id="aHdXoiT4e0akhCMBk4jk-225" value="Lexical&lt;div&gt;Environment&lt;/div&gt;" style="swimlane;whiteSpace=wrap;html=1;fillColor=#e1d5e7;strokeColor=#9673a6;" parent="aHdXoiT4e0akhCMBk4jk-223" vertex="1">
          <mxGeometry x="20" y="100" width="120" height="110" as="geometry" />
        </mxCell>
        <mxCell id="aHdXoiT4e0akhCMBk4jk-226" value="Record" style="rounded=0;whiteSpace=wrap;html=1;fillColor=#ffe6cc;strokeColor=#d79b00;" parent="aHdXoiT4e0akhCMBk4jk-225" vertex="1">
          <mxGeometry x="15" y="38.75" width="90" height="22.5" as="geometry" />
        </mxCell>
        <mxCell id="aHdXoiT4e0akhCMBk4jk-227" value="Outer" style="rounded=0;whiteSpace=wrap;html=1;fillColor=#ffe6cc;strokeColor=#d79b00;" parent="aHdXoiT4e0akhCMBk4jk-225" vertex="1">
          <mxGeometry x="15" y="70" width="90" height="22.5" as="geometry" />
        </mxCell>
        <mxCell id="aHdXoiT4e0akhCMBk4jk-228" style="edgeStyle=orthogonalEdgeStyle;rounded=0;orthogonalLoop=1;jettySize=auto;html=1;exitX=1;exitY=0.5;exitDx=0;exitDy=0;entryX=0;entryY=0.5;entryDx=0;entryDy=0;" parent="1" source="aHdXoiT4e0akhCMBk4jk-219" target="aHdXoiT4e0akhCMBk4jk-226" edge="1">
          <mxGeometry relative="1" as="geometry" />
        </mxCell>
        <mxCell id="aHdXoiT4e0akhCMBk4jk-229" value="JS execution(5)" style="swimlane;whiteSpace=wrap;html=1;" parent="1" vertex="1">
          <mxGeometry x="1420" y="3200" width="270" height="320" as="geometry" />
        </mxCell>
        <mxCell id="aHdXoiT4e0akhCMBk4jk-230" value="Execution Context" style="swimlane;whiteSpace=wrap;html=1;fillColor=#fff2cc;strokeColor=#d6b656;" parent="aHdXoiT4e0akhCMBk4jk-229" vertex="1">
          <mxGeometry x="20" y="40" width="180" height="260" as="geometry" />
        </mxCell>
        <mxCell id="aHdXoiT4e0akhCMBk4jk-231" value="Variable Environment" style="rounded=0;whiteSpace=wrap;html=1;fillColor=#e1d5e7;strokeColor=#9673a6;" parent="aHdXoiT4e0akhCMBk4jk-230" vertex="1">
          <mxGeometry x="20" y="40" width="120" height="40" as="geometry" />
        </mxCell>
        <mxCell id="aHdXoiT4e0akhCMBk4jk-232" value="Environment Record" style="swimlane;whiteSpace=wrap;html=1;fillColor=#ffe6cc;strokeColor=#d79b00;" parent="aHdXoiT4e0akhCMBk4jk-230" vertex="1">
          <mxGeometry x="20" y="100" width="120" height="140" as="geometry" />
        </mxCell>
        <mxCell id="aHdXoiT4e0akhCMBk4jk-233" value="a = 1" style="rounded=0;whiteSpace=wrap;html=1;" parent="aHdXoiT4e0akhCMBk4jk-232" vertex="1">
          <mxGeometry x="15" y="40" width="90" height="22.5" as="geometry" />
        </mxCell>
        <mxCell id="aHdXoiT4e0akhCMBk4jk-234" value="b = 2" style="rounded=0;whiteSpace=wrap;html=1;" parent="aHdXoiT4e0akhCMBk4jk-232" vertex="1">
          <mxGeometry x="15" y="62.5" width="90" height="22.5" as="geometry" />
        </mxCell>
        <mxCell id="aHdXoiT4e0akhCMBk4jk-235" value="c() {}" style="rounded=0;whiteSpace=wrap;html=1;" parent="aHdXoiT4e0akhCMBk4jk-232" vertex="1">
          <mxGeometry x="15" y="85" width="90" height="22.5" as="geometry" />
        </mxCell>
        <mxCell id="aHdXoiT4e0akhCMBk4jk-236" value="d = () =&amp;gt; {}" style="rounded=0;whiteSpace=wrap;html=1;" parent="aHdXoiT4e0akhCMBk4jk-232" vertex="1">
          <mxGeometry x="15" y="107.5" width="90" height="22.5" as="geometry" />
        </mxCell>
        <mxCell id="aHdXoiT4e0akhCMBk4jk-237" style="edgeStyle=orthogonalEdgeStyle;rounded=0;orthogonalLoop=1;jettySize=auto;html=1;exitX=1;exitY=0.5;exitDx=0;exitDy=0;entryX=0;entryY=0.5;entryDx=0;entryDy=0;" parent="1" source="aHdXoiT4e0akhCMBk4jk-226" target="aHdXoiT4e0akhCMBk4jk-236" edge="1">
          <mxGeometry relative="1" as="geometry" />
        </mxCell>
        <mxCell id="aHdXoiT4e0akhCMBk4jk-244" value="function c() {}&lt;div&gt;let e = { a:1 };&lt;/div&gt;&lt;div&gt;let f = [1, 2, 3];&lt;/div&gt;" style="rounded=1;whiteSpace=wrap;html=1;" parent="1" vertex="1">
          <mxGeometry x="40" y="3560" width="120" height="60" as="geometry" />
        </mxCell>
        <mxCell id="aHdXoiT4e0akhCMBk4jk-245" value="JS execution(1&lt;span style=&quot;background-color: initial;&quot;&gt;)&lt;/span&gt;" style="swimlane;whiteSpace=wrap;html=1;" parent="1" vertex="1">
          <mxGeometry x="40" y="3640" width="440" height="320" as="geometry" />
        </mxCell>
        <mxCell id="aHdXoiT4e0akhCMBk4jk-246" value="CallStack" style="swimlane;whiteSpace=wrap;html=1;fillColor=#dae8fc;strokeColor=#6c8ebf;" parent="aHdXoiT4e0akhCMBk4jk-245" vertex="1">
          <mxGeometry x="20" y="40" width="180" height="230" as="geometry" />
        </mxCell>
        <mxCell id="aHdXoiT4e0akhCMBk4jk-248" value="Record" style="swimlane;whiteSpace=wrap;html=1;fillColor=#ffe6cc;strokeColor=#d79b00;" parent="aHdXoiT4e0akhCMBk4jk-246" vertex="1">
          <mxGeometry x="20" y="100" width="140" height="110" as="geometry" />
        </mxCell>
        <mxCell id="aHdXoiT4e0akhCMBk4jk-247" value="c" style="rounded=0;whiteSpace=wrap;html=1;" parent="aHdXoiT4e0akhCMBk4jk-248" vertex="1">
          <mxGeometry x="11" y="34" width="99" height="22" as="geometry" />
        </mxCell>
        <mxCell id="aHdXoiT4e0akhCMBk4jk-249" value="e : 어디에 있다~" style="rounded=0;whiteSpace=wrap;html=1;" parent="aHdXoiT4e0akhCMBk4jk-248" vertex="1">
          <mxGeometry x="11" y="56" width="99" height="22" as="geometry" />
        </mxCell>
        <mxCell id="aHdXoiT4e0akhCMBk4jk-250" value="f" style="rounded=0;whiteSpace=wrap;html=1;" parent="aHdXoiT4e0akhCMBk4jk-248" vertex="1">
          <mxGeometry x="11" y="78" width="99" height="22" as="geometry" />
        </mxCell>
        <mxCell id="aHdXoiT4e0akhCMBk4jk-251" value="MemoryHeap" style="swimlane;whiteSpace=wrap;html=1;fillColor=#dae8fc;strokeColor=#6c8ebf;" parent="aHdXoiT4e0akhCMBk4jk-245" vertex="1">
          <mxGeometry x="200" y="40" width="180" height="230" as="geometry" />
        </mxCell>
        <mxCell id="aHdXoiT4e0akhCMBk4jk-256" value="c() {}" style="rounded=0;whiteSpace=wrap;html=1;" parent="aHdXoiT4e0akhCMBk4jk-251" vertex="1">
          <mxGeometry x="75" y="40" width="86" height="22" as="geometry" />
        </mxCell>
        <mxCell id="aHdXoiT4e0akhCMBk4jk-257" value="a : 1" style="rounded=0;whiteSpace=wrap;html=1;" parent="aHdXoiT4e0akhCMBk4jk-251" vertex="1">
          <mxGeometry x="30" y="80" width="86" height="22" as="geometry" />
        </mxCell>
        <mxCell id="aHdXoiT4e0akhCMBk4jk-258" value="1, 2, 3" style="rounded=0;whiteSpace=wrap;html=1;" parent="aHdXoiT4e0akhCMBk4jk-251" vertex="1">
          <mxGeometry x="75" y="190" width="86" height="22" as="geometry" />
        </mxCell>
        <mxCell id="aHdXoiT4e0akhCMBk4jk-259" style="edgeStyle=orthogonalEdgeStyle;rounded=0;orthogonalLoop=1;jettySize=auto;html=1;exitX=1;exitY=0.5;exitDx=0;exitDy=0;entryX=0;entryY=0.5;entryDx=0;entryDy=0;" parent="aHdXoiT4e0akhCMBk4jk-245" source="aHdXoiT4e0akhCMBk4jk-247" target="aHdXoiT4e0akhCMBk4jk-256" edge="1">
          <mxGeometry relative="1" as="geometry">
            <Array as="points">
              <mxPoint x="190" y="185" />
              <mxPoint x="190" y="91" />
            </Array>
          </mxGeometry>
        </mxCell>
        <mxCell id="aHdXoiT4e0akhCMBk4jk-261" style="edgeStyle=orthogonalEdgeStyle;rounded=0;orthogonalLoop=1;jettySize=auto;html=1;exitX=1;exitY=0.5;exitDx=0;exitDy=0;entryX=0;entryY=0.5;entryDx=0;entryDy=0;" parent="aHdXoiT4e0akhCMBk4jk-245" source="aHdXoiT4e0akhCMBk4jk-250" target="aHdXoiT4e0akhCMBk4jk-258" edge="1">
          <mxGeometry relative="1" as="geometry" />
        </mxCell>
        <mxCell id="aHdXoiT4e0akhCMBk4jk-262" style="edgeStyle=orthogonalEdgeStyle;rounded=0;orthogonalLoop=1;jettySize=auto;html=1;exitX=1;exitY=0.5;exitDx=0;exitDy=0;entryX=0;entryY=0.5;entryDx=0;entryDy=0;" parent="aHdXoiT4e0akhCMBk4jk-245" source="aHdXoiT4e0akhCMBk4jk-249" target="aHdXoiT4e0akhCMBk4jk-257" edge="1">
          <mxGeometry relative="1" as="geometry">
            <Array as="points">
              <mxPoint x="210" y="207" />
              <mxPoint x="210" y="131" />
            </Array>
          </mxGeometry>
        </mxCell>
        <mxCell id="aHdXoiT4e0akhCMBk4jk-264" value="function c() {&lt;div&gt;console.log(1);&lt;/div&gt;&lt;div&gt;}&lt;/div&gt;" style="rounded=1;whiteSpace=wrap;html=1;" parent="1" vertex="1">
          <mxGeometry x="40" y="3980" width="120" height="60" as="geometry" />
        </mxCell>
        <mxCell id="aHdXoiT4e0akhCMBk4jk-265" value="JS execution(1&lt;span style=&quot;background-color: initial;&quot;&gt;)&lt;/span&gt;" style="swimlane;whiteSpace=wrap;html=1;" parent="1" vertex="1">
          <mxGeometry x="40" y="4060" width="440" height="320" as="geometry" />
        </mxCell>
        <mxCell id="aHdXoiT4e0akhCMBk4jk-266" value="CallStack" style="swimlane;whiteSpace=wrap;html=1;fillColor=#dae8fc;strokeColor=#6c8ebf;" parent="aHdXoiT4e0akhCMBk4jk-265" vertex="1">
          <mxGeometry x="20" y="40" width="180" height="230" as="geometry" />
        </mxCell>
        <mxCell id="aHdXoiT4e0akhCMBk4jk-267" value="Record" style="swimlane;whiteSpace=wrap;html=1;fillColor=#ffe6cc;strokeColor=#d79b00;" parent="aHdXoiT4e0akhCMBk4jk-266" vertex="1">
          <mxGeometry x="20" y="100" width="140" height="110" as="geometry" />
        </mxCell>
        <mxCell id="aHdXoiT4e0akhCMBk4jk-268" value="c" style="rounded=0;whiteSpace=wrap;html=1;" parent="aHdXoiT4e0akhCMBk4jk-267" vertex="1">
          <mxGeometry x="11" y="34" width="99" height="22" as="geometry" />
        </mxCell>
        <mxCell id="aHdXoiT4e0akhCMBk4jk-271" value="MemoryHeap" style="swimlane;whiteSpace=wrap;html=1;fillColor=#dae8fc;strokeColor=#6c8ebf;" parent="aHdXoiT4e0akhCMBk4jk-265" vertex="1">
          <mxGeometry x="200" y="40" width="180" height="230" as="geometry" />
        </mxCell>
        <mxCell id="aHdXoiT4e0akhCMBk4jk-272" value="f c() {&lt;div&gt;console.log(1);&lt;br&gt;&lt;/div&gt;&lt;div&gt;}&lt;/div&gt;" style="rounded=0;whiteSpace=wrap;html=1;" parent="aHdXoiT4e0akhCMBk4jk-271" vertex="1">
          <mxGeometry x="75" y="40" width="86" height="60" as="geometry" />
        </mxCell>
        <mxCell id="aHdXoiT4e0akhCMBk4jk-278" style="edgeStyle=orthogonalEdgeStyle;rounded=0;orthogonalLoop=1;jettySize=auto;html=1;exitX=1;exitY=0.5;exitDx=0;exitDy=0;entryX=0;entryY=0.5;entryDx=0;entryDy=0;" parent="aHdXoiT4e0akhCMBk4jk-265" source="aHdXoiT4e0akhCMBk4jk-268" target="aHdXoiT4e0akhCMBk4jk-272" edge="1">
          <mxGeometry relative="1" as="geometry" />
        </mxCell>
        <mxCell id="aHdXoiT4e0akhCMBk4jk-279" value="function c() {&lt;div&gt;console.log(1);&lt;/div&gt;&lt;div&gt;}&lt;/div&gt;&lt;div&gt;c();&lt;/div&gt;" style="rounded=1;whiteSpace=wrap;html=1;" parent="1" vertex="1">
          <mxGeometry x="40" y="4400" width="120" height="60" as="geometry" />
        </mxCell>
        <mxCell id="aHdXoiT4e0akhCMBk4jk-287" value="Event Loop" style="swimlane;whiteSpace=wrap;html=1;" parent="1" vertex="1">
          <mxGeometry x="40" y="4480" width="620" height="490" as="geometry" />
        </mxCell>
        <mxCell id="aHdXoiT4e0akhCMBk4jk-288" value="JS Engine" style="swimlane;whiteSpace=wrap;html=1;fillColor=#d5e8d4;strokeColor=#82b366;" parent="aHdXoiT4e0akhCMBk4jk-287" vertex="1">
          <mxGeometry x="20" y="40" width="580" height="430" as="geometry" />
        </mxCell>
        <mxCell id="aHdXoiT4e0akhCMBk4jk-289" value="CallStack" style="swimlane;whiteSpace=wrap;html=1;fillColor=#dae8fc;strokeColor=#6c8ebf;" parent="aHdXoiT4e0akhCMBk4jk-288" vertex="1">
          <mxGeometry x="20" y="40" width="380" height="370" as="geometry" />
        </mxCell>
        <mxCell id="aHdXoiT4e0akhCMBk4jk-290" value="Execution Context" style="swimlane;whiteSpace=wrap;html=1;fillColor=#fff2cc;strokeColor=#d6b656;" parent="aHdXoiT4e0akhCMBk4jk-289" vertex="1">
          <mxGeometry x="20" y="40" width="340" height="310" as="geometry" />
        </mxCell>
        <mxCell id="aHdXoiT4e0akhCMBk4jk-292" value="Variable Environment" style="swimlane;whiteSpace=wrap;html=1;fillColor=#e1d5e7;strokeColor=#9673a6;" parent="aHdXoiT4e0akhCMBk4jk-290" vertex="1">
          <mxGeometry x="20" y="40" width="120" height="90" as="geometry" />
        </mxCell>
        <mxCell id="aHdXoiT4e0akhCMBk4jk-294" value="c" style="rounded=0;whiteSpace=wrap;html=1;" parent="aHdXoiT4e0akhCMBk4jk-292" vertex="1">
          <mxGeometry x="15" y="36" width="90" height="22.5" as="geometry" />
        </mxCell>
        <mxCell id="aHdXoiT4e0akhCMBk4jk-295" value="Global Lexical Environment" style="swimlane;whiteSpace=wrap;html=1;fillColor=#e1d5e7;strokeColor=#9673a6;" parent="aHdXoiT4e0akhCMBk4jk-290" vertex="1">
          <mxGeometry x="160" y="40" width="160" height="220" as="geometry" />
        </mxCell>
        <mxCell id="aHdXoiT4e0akhCMBk4jk-296" value="Environment Record" style="swimlane;whiteSpace=wrap;html=1;fillColor=#ffe6cc;strokeColor=#d79b00;" parent="aHdXoiT4e0akhCMBk4jk-295" vertex="1">
          <mxGeometry x="20" y="40" width="120" height="80" as="geometry" />
        </mxCell>
        <mxCell id="aHdXoiT4e0akhCMBk4jk-297" value="c" style="rounded=0;whiteSpace=wrap;html=1;" parent="aHdXoiT4e0akhCMBk4jk-296" vertex="1">
          <mxGeometry x="15" y="40" width="90" height="22.5" as="geometry" />
        </mxCell>
        <mxCell id="aHdXoiT4e0akhCMBk4jk-299" value="Outer Lexical Environment" style="swimlane;whiteSpace=wrap;html=1;fillColor=#ffe6cc;strokeColor=#d79b00;" parent="aHdXoiT4e0akhCMBk4jk-295" vertex="1">
          <mxGeometry x="20" y="130" width="120" height="80" as="geometry" />
        </mxCell>
        <mxCell id="aHdXoiT4e0akhCMBk4jk-300" value="null" style="rounded=0;whiteSpace=wrap;html=1;" parent="aHdXoiT4e0akhCMBk4jk-299" vertex="1">
          <mxGeometry x="10" y="40" width="90" height="22.5" as="geometry" />
        </mxCell>
        <mxCell id="aHdXoiT4e0akhCMBk4jk-301" value="This Binding" style="swimlane;whiteSpace=wrap;html=1;fillColor=#e1d5e7;strokeColor=#9673a6;" parent="aHdXoiT4e0akhCMBk4jk-290" vertex="1">
          <mxGeometry x="20" y="150" width="120" height="80" as="geometry" />
        </mxCell>
        <mxCell id="aHdXoiT4e0akhCMBk4jk-302" value="window" style="rounded=0;whiteSpace=wrap;html=1;" parent="aHdXoiT4e0akhCMBk4jk-301" vertex="1">
          <mxGeometry x="10" y="40" width="90" height="22.5" as="geometry" />
        </mxCell>
        <mxCell id="aHdXoiT4e0akhCMBk4jk-307" style="edgeStyle=orthogonalEdgeStyle;rounded=0;orthogonalLoop=1;jettySize=auto;html=1;entryX=0;entryY=0.5;entryDx=0;entryDy=0;" parent="aHdXoiT4e0akhCMBk4jk-290" source="aHdXoiT4e0akhCMBk4jk-294" target="aHdXoiT4e0akhCMBk4jk-297" edge="1">
          <mxGeometry relative="1" as="geometry">
            <Array as="points">
              <mxPoint x="150" y="87" />
              <mxPoint x="150" y="131" />
            </Array>
          </mxGeometry>
        </mxCell>
        <mxCell id="aHdXoiT4e0akhCMBk4jk-304" value="MemoryHeap" style="swimlane;whiteSpace=wrap;html=1;fillColor=#dae8fc;strokeColor=#6c8ebf;" parent="aHdXoiT4e0akhCMBk4jk-288" vertex="1">
          <mxGeometry x="400" y="40" width="160" height="370" as="geometry" />
        </mxCell>
        <mxCell id="aHdXoiT4e0akhCMBk4jk-305" value="f c() {&lt;div&gt;console.log(1);&lt;br&gt;&lt;/div&gt;&lt;div&gt;}&lt;/div&gt;" style="rounded=0;whiteSpace=wrap;html=1;" parent="aHdXoiT4e0akhCMBk4jk-304" vertex="1">
          <mxGeometry x="40" y="210" width="86" height="60" as="geometry" />
        </mxCell>
        <mxCell id="aHdXoiT4e0akhCMBk4jk-306" style="edgeStyle=orthogonalEdgeStyle;rounded=0;orthogonalLoop=1;jettySize=auto;html=1;exitX=1;exitY=0.5;exitDx=0;exitDy=0;entryX=0;entryY=0.5;entryDx=0;entryDy=0;" parent="aHdXoiT4e0akhCMBk4jk-288" source="aHdXoiT4e0akhCMBk4jk-297" target="aHdXoiT4e0akhCMBk4jk-305" edge="1">
          <mxGeometry relative="1" as="geometry" />
        </mxCell>
        <mxCell id="aHdXoiT4e0akhCMBk4jk-308" value="Event Loop" style="swimlane;whiteSpace=wrap;html=1;" parent="1" vertex="1">
          <mxGeometry x="680" y="4480" width="620" height="490" as="geometry" />
        </mxCell>
        <mxCell id="aHdXoiT4e0akhCMBk4jk-309" value="JS Engine" style="swimlane;whiteSpace=wrap;html=1;fillColor=#d5e8d4;strokeColor=#82b366;" parent="aHdXoiT4e0akhCMBk4jk-308" vertex="1">
          <mxGeometry x="20" y="40" width="580" height="430" as="geometry" />
        </mxCell>
        <mxCell id="aHdXoiT4e0akhCMBk4jk-310" value="CallStack" style="swimlane;whiteSpace=wrap;html=1;fillColor=#dae8fc;strokeColor=#6c8ebf;" parent="aHdXoiT4e0akhCMBk4jk-309" vertex="1">
          <mxGeometry x="20" y="40" width="380" height="370" as="geometry" />
        </mxCell>
        <mxCell id="aHdXoiT4e0akhCMBk4jk-311" value="Global Execution Context" style="swimlane;whiteSpace=wrap;html=1;fillColor=#fff2cc;strokeColor=#d6b656;" parent="aHdXoiT4e0akhCMBk4jk-310" vertex="1">
          <mxGeometry x="20" y="270" width="340" height="80" as="geometry" />
        </mxCell>
        <mxCell id="aHdXoiT4e0akhCMBk4jk-313" value="c" style="rounded=0;whiteSpace=wrap;html=1;" parent="aHdXoiT4e0akhCMBk4jk-311" vertex="1">
          <mxGeometry x="110" y="40" width="90" height="22.5" as="geometry" />
        </mxCell>
        <mxCell id="aHdXoiT4e0akhCMBk4jk-343" value="Record" style="rounded=0;whiteSpace=wrap;html=1;fillColor=#ffe6cc;strokeColor=#d79b00;" parent="aHdXoiT4e0akhCMBk4jk-311" vertex="1">
          <mxGeometry x="20" y="40" width="90" height="22.5" as="geometry" />
        </mxCell>
        <mxCell id="aHdXoiT4e0akhCMBk4jk-328" value="Execution Context" style="swimlane;whiteSpace=wrap;html=1;fillColor=#fff2cc;strokeColor=#d6b656;" parent="aHdXoiT4e0akhCMBk4jk-310" vertex="1">
          <mxGeometry x="20" y="50" width="340" height="220" as="geometry" />
        </mxCell>
        <mxCell id="aHdXoiT4e0akhCMBk4jk-331" value="Lexical&lt;div&gt;Environment&lt;/div&gt;" style="swimlane;whiteSpace=wrap;html=1;fillColor=#e1d5e7;strokeColor=#9673a6;" parent="aHdXoiT4e0akhCMBk4jk-328" vertex="1">
          <mxGeometry x="20" y="40" width="120" height="110" as="geometry" />
        </mxCell>
        <mxCell id="aHdXoiT4e0akhCMBk4jk-332" value="Record" style="rounded=0;whiteSpace=wrap;html=1;fillColor=#ffe6cc;strokeColor=#d79b00;" parent="aHdXoiT4e0akhCMBk4jk-331" vertex="1">
          <mxGeometry x="15" y="38.75" width="90" height="22.5" as="geometry" />
        </mxCell>
        <mxCell id="aHdXoiT4e0akhCMBk4jk-333" value="Outer" style="rounded=0;whiteSpace=wrap;html=1;fillColor=#ffe6cc;strokeColor=#d79b00;" parent="aHdXoiT4e0akhCMBk4jk-331" vertex="1">
          <mxGeometry x="15" y="70" width="90" height="22.5" as="geometry" />
        </mxCell>
        <mxCell id="aHdXoiT4e0akhCMBk4jk-334" value="ThisBinding" style="rounded=0;whiteSpace=wrap;html=1;fillColor=#e1d5e7;strokeColor=#9673a6;" parent="aHdXoiT4e0akhCMBk4jk-328" vertex="1">
          <mxGeometry x="160" y="40" width="120" height="40" as="geometry" />
        </mxCell>
        <mxCell id="aHdXoiT4e0akhCMBk4jk-342" style="edgeStyle=orthogonalEdgeStyle;rounded=0;orthogonalLoop=1;jettySize=auto;html=1;entryX=1;entryY=0.5;entryDx=0;entryDy=0;" parent="aHdXoiT4e0akhCMBk4jk-328" source="aHdXoiT4e0akhCMBk4jk-341" target="aHdXoiT4e0akhCMBk4jk-332" edge="1">
          <mxGeometry relative="1" as="geometry" />
        </mxCell>
        <mxCell id="aHdXoiT4e0akhCMBk4jk-341" value="Variable Environment&lt;div&gt;(a)&lt;/div&gt;" style="rounded=0;whiteSpace=wrap;html=1;fillColor=#e1d5e7;strokeColor=#9673a6;" parent="aHdXoiT4e0akhCMBk4jk-328" vertex="1">
          <mxGeometry x="160" y="110" width="120" height="40" as="geometry" />
        </mxCell>
        <mxCell id="aHdXoiT4e0akhCMBk4jk-337" style="edgeStyle=orthogonalEdgeStyle;rounded=0;orthogonalLoop=1;jettySize=auto;html=1;exitX=1;exitY=0.5;exitDx=0;exitDy=0;entryX=1;entryY=0.5;entryDx=0;entryDy=0;" parent="aHdXoiT4e0akhCMBk4jk-310" source="aHdXoiT4e0akhCMBk4jk-334" target="aHdXoiT4e0akhCMBk4jk-311" edge="1">
          <mxGeometry relative="1" as="geometry">
            <Array as="points">
              <mxPoint x="410" y="110" />
              <mxPoint x="410" y="310" />
            </Array>
          </mxGeometry>
        </mxCell>
        <mxCell id="aHdXoiT4e0akhCMBk4jk-322" value="MemoryHeap" style="swimlane;whiteSpace=wrap;html=1;fillColor=#dae8fc;strokeColor=#6c8ebf;" parent="aHdXoiT4e0akhCMBk4jk-309" vertex="1">
          <mxGeometry x="400" y="40" width="160" height="370" as="geometry" />
        </mxCell>
        <mxCell id="aHdXoiT4e0akhCMBk4jk-323" value="f c() {&lt;div&gt;let a = 3;&lt;br&gt;&lt;div&gt;console.log(a);&lt;br&gt;&lt;/div&gt;&lt;div&gt;}&lt;/div&gt;&lt;/div&gt;" style="rounded=0;whiteSpace=wrap;html=1;" parent="aHdXoiT4e0akhCMBk4jk-322" vertex="1">
          <mxGeometry x="40" y="210" width="86" height="60" as="geometry" />
        </mxCell>
        <mxCell id="aHdXoiT4e0akhCMBk4jk-326" style="edgeStyle=orthogonalEdgeStyle;rounded=0;orthogonalLoop=1;jettySize=auto;html=1;entryX=0.5;entryY=1;entryDx=0;entryDy=0;" parent="aHdXoiT4e0akhCMBk4jk-309" source="aHdXoiT4e0akhCMBk4jk-313" target="aHdXoiT4e0akhCMBk4jk-323" edge="1">
          <mxGeometry relative="1" as="geometry">
            <mxPoint x="330" y="260" as="targetPoint" />
          </mxGeometry>
        </mxCell>
        <mxCell id="aHdXoiT4e0akhCMBk4jk-330" style="edgeStyle=orthogonalEdgeStyle;rounded=0;orthogonalLoop=1;jettySize=auto;html=1;exitX=0;exitY=0.5;exitDx=0;exitDy=0;entryX=1;entryY=0.5;entryDx=0;entryDy=0;" parent="aHdXoiT4e0akhCMBk4jk-309" source="aHdXoiT4e0akhCMBk4jk-323" target="aHdXoiT4e0akhCMBk4jk-341" edge="1">
          <mxGeometry relative="1" as="geometry">
            <Array as="points">
              <mxPoint x="390" y="280" />
              <mxPoint x="390" y="220" />
            </Array>
          </mxGeometry>
        </mxCell>
        <mxCell id="aHdXoiT4e0akhCMBk4jk-346" style="edgeStyle=orthogonalEdgeStyle;rounded=0;orthogonalLoop=1;jettySize=auto;html=1;exitX=0.75;exitY=0;exitDx=0;exitDy=0;entryX=0.5;entryY=0;entryDx=0;entryDy=0;" parent="aHdXoiT4e0akhCMBk4jk-309" source="aHdXoiT4e0akhCMBk4jk-332" target="aHdXoiT4e0akhCMBk4jk-323" edge="1">
          <mxGeometry relative="1" as="geometry">
            <Array as="points">
              <mxPoint x="143" y="120" />
              <mxPoint x="483" y="120" />
            </Array>
          </mxGeometry>
        </mxCell>
        <mxCell id="aHdXoiT4e0akhCMBk4jk-347" value="const f = {&lt;div&gt;a: 1, b: 2,&amp;nbsp;&lt;/div&gt;&lt;div&gt;c: function() {&amp;nbsp;&lt;span style=&quot;background-color: initial;&quot;&gt;console.log(this); },&lt;/span&gt;&lt;/div&gt;&lt;div&gt;&lt;span style=&quot;background-color: initial;&quot;&gt;d: ()=&amp;gt;{ console.log(this); }&lt;/span&gt;&lt;/div&gt;&lt;div&gt;}&lt;/div&gt;" style="rounded=1;whiteSpace=wrap;html=1;" parent="1" vertex="1">
          <mxGeometry x="40" y="5000" width="220" height="80" as="geometry" />
        </mxCell>
        <mxCell id="aHdXoiT4e0akhCMBk4jk-348" value="Event Loop" style="swimlane;whiteSpace=wrap;html=1;" parent="1" vertex="1">
          <mxGeometry x="40" y="5100" width="480" height="340" as="geometry" />
        </mxCell>
        <mxCell id="aHdXoiT4e0akhCMBk4jk-349" value="CallStack" style="swimlane;whiteSpace=wrap;html=1;fillColor=#dae8fc;strokeColor=#6c8ebf;" parent="aHdXoiT4e0akhCMBk4jk-348" vertex="1">
          <mxGeometry x="20" y="40" width="215" height="280" as="geometry" />
        </mxCell>
        <mxCell id="aHdXoiT4e0akhCMBk4jk-351" value="글로벌 실행 컨텍스트" style="swimlane;whiteSpace=wrap;html=1;fillColor=#fff2cc;strokeColor=#d6b656;" parent="aHdXoiT4e0akhCMBk4jk-349" vertex="1">
          <mxGeometry x="15" y="190" width="175" height="70" as="geometry" />
        </mxCell>
        <mxCell id="aHdXoiT4e0akhCMBk4jk-352" value="f" style="rounded=0;whiteSpace=wrap;html=1;" parent="aHdXoiT4e0akhCMBk4jk-351" vertex="1">
          <mxGeometry x="15" y="30" width="75" height="30" as="geometry" />
        </mxCell>
        <mxCell id="aHdXoiT4e0akhCMBk4jk-356" value="실행 컨텍스트(c)" style="swimlane;whiteSpace=wrap;html=1;fillColor=#fff2cc;strokeColor=#d6b656;" parent="aHdXoiT4e0akhCMBk4jk-349" vertex="1">
          <mxGeometry x="15" y="70" width="175" height="120" as="geometry" />
        </mxCell>
        <mxCell id="aHdXoiT4e0akhCMBk4jk-357" value="outer" style="rounded=0;whiteSpace=wrap;html=1;" parent="aHdXoiT4e0akhCMBk4jk-356" vertex="1">
          <mxGeometry x="90" y="30" width="75" height="30" as="geometry" />
        </mxCell>
        <mxCell id="aHdXoiT4e0akhCMBk4jk-360" value="this binding" style="rounded=0;whiteSpace=wrap;html=1;" parent="aHdXoiT4e0akhCMBk4jk-356" vertex="1">
          <mxGeometry x="90" y="70" width="75" height="30" as="geometry" />
        </mxCell>
        <mxCell id="aHdXoiT4e0akhCMBk4jk-362" value="r&lt;span style=&quot;background-color: initial;&quot;&gt;ecord&lt;br&gt;&lt;/span&gt;" style="rounded=0;whiteSpace=wrap;html=1;" parent="aHdXoiT4e0akhCMBk4jk-356" vertex="1">
          <mxGeometry x="5" y="30" width="75" height="30" as="geometry" />
        </mxCell>
        <mxCell id="aHdXoiT4e0akhCMBk4jk-359" style="edgeStyle=orthogonalEdgeStyle;rounded=0;orthogonalLoop=1;jettySize=auto;html=1;exitX=1;exitY=0.5;exitDx=0;exitDy=0;entryX=1;entryY=0.5;entryDx=0;entryDy=0;" parent="aHdXoiT4e0akhCMBk4jk-349" source="aHdXoiT4e0akhCMBk4jk-357" target="aHdXoiT4e0akhCMBk4jk-351" edge="1">
          <mxGeometry relative="1" as="geometry" />
        </mxCell>
        <mxCell id="aHdXoiT4e0akhCMBk4jk-350" value="MemoryHeap" style="swimlane;whiteSpace=wrap;html=1;fillColor=#dae8fc;strokeColor=#6c8ebf;" parent="aHdXoiT4e0akhCMBk4jk-348" vertex="1">
          <mxGeometry x="250" y="40" width="210" height="200" as="geometry" />
        </mxCell>
        <mxCell id="aHdXoiT4e0akhCMBk4jk-353" value="&lt;div&gt;a: 1, b: 2,&amp;nbsp;&lt;/div&gt;&lt;div&gt;c: function() {&amp;nbsp;&lt;span style=&quot;background-color: initial;&quot;&gt;console.log(this); },&lt;/span&gt;&lt;/div&gt;&lt;div&gt;&lt;span style=&quot;background-color: initial;&quot;&gt;d: ()=&amp;gt;{ console.log(this); }&lt;/span&gt;&lt;/div&gt;" style="rounded=0;whiteSpace=wrap;html=1;" parent="aHdXoiT4e0akhCMBk4jk-350" vertex="1">
          <mxGeometry x="10" y="130" width="190" height="60" as="geometry" />
        </mxCell>
        <mxCell id="aHdXoiT4e0akhCMBk4jk-355" style="edgeStyle=orthogonalEdgeStyle;rounded=0;orthogonalLoop=1;jettySize=auto;html=1;entryX=0.5;entryY=1;entryDx=0;entryDy=0;" parent="aHdXoiT4e0akhCMBk4jk-348" source="aHdXoiT4e0akhCMBk4jk-352" target="aHdXoiT4e0akhCMBk4jk-353" edge="1">
          <mxGeometry relative="1" as="geometry" />
        </mxCell>
        <mxCell id="aHdXoiT4e0akhCMBk4jk-361" style="edgeStyle=orthogonalEdgeStyle;rounded=0;orthogonalLoop=1;jettySize=auto;html=1;entryX=0;entryY=0.5;entryDx=0;entryDy=0;fillColor=#f8cecc;strokeColor=#b85450;" parent="aHdXoiT4e0akhCMBk4jk-348" source="aHdXoiT4e0akhCMBk4jk-360" target="aHdXoiT4e0akhCMBk4jk-353" edge="1">
          <mxGeometry relative="1" as="geometry" />
        </mxCell>
        <mxCell id="aHdXoiT4e0akhCMBk4jk-363" value="Event Loop" style="swimlane;whiteSpace=wrap;html=1;" parent="1" vertex="1">
          <mxGeometry x="540" y="5100" width="480" height="340" as="geometry" />
        </mxCell>
        <mxCell id="aHdXoiT4e0akhCMBk4jk-364" value="CallStack" style="swimlane;whiteSpace=wrap;html=1;fillColor=#dae8fc;strokeColor=#6c8ebf;" parent="aHdXoiT4e0akhCMBk4jk-363" vertex="1">
          <mxGeometry x="20" y="40" width="215" height="280" as="geometry" />
        </mxCell>
        <mxCell id="aHdXoiT4e0akhCMBk4jk-365" value="글로벌 실행 컨텍스트" style="swimlane;whiteSpace=wrap;html=1;fillColor=#fff2cc;strokeColor=#d6b656;" parent="aHdXoiT4e0akhCMBk4jk-364" vertex="1">
          <mxGeometry x="15" y="190" width="175" height="70" as="geometry" />
        </mxCell>
        <mxCell id="aHdXoiT4e0akhCMBk4jk-366" value="f" style="rounded=0;whiteSpace=wrap;html=1;" parent="aHdXoiT4e0akhCMBk4jk-365" vertex="1">
          <mxGeometry x="90" y="30" width="75" height="30" as="geometry" />
        </mxCell>
        <mxCell id="aHdXoiT4e0akhCMBk4jk-376" value="this&lt;div&gt;(window)&lt;/div&gt;" style="rounded=0;whiteSpace=wrap;html=1;" parent="aHdXoiT4e0akhCMBk4jk-365" vertex="1">
          <mxGeometry x="11" y="30" width="75" height="30" as="geometry" />
        </mxCell>
        <mxCell id="aHdXoiT4e0akhCMBk4jk-367" value="실행 컨텍스트(d)" style="swimlane;whiteSpace=wrap;html=1;fillColor=#fff2cc;strokeColor=#d6b656;" parent="aHdXoiT4e0akhCMBk4jk-364" vertex="1">
          <mxGeometry x="15" y="70" width="175" height="120" as="geometry" />
        </mxCell>
        <mxCell id="aHdXoiT4e0akhCMBk4jk-368" value="outer" style="rounded=0;whiteSpace=wrap;html=1;" parent="aHdXoiT4e0akhCMBk4jk-367" vertex="1">
          <mxGeometry x="90" y="30" width="75" height="30" as="geometry" />
        </mxCell>
        <mxCell id="aHdXoiT4e0akhCMBk4jk-370" value="r&lt;span style=&quot;background-color: initial;&quot;&gt;ecord&lt;br&gt;&lt;/span&gt;" style="rounded=0;whiteSpace=wrap;html=1;" parent="aHdXoiT4e0akhCMBk4jk-367" vertex="1">
          <mxGeometry x="5" y="30" width="75" height="30" as="geometry" />
        </mxCell>
        <mxCell id="aHdXoiT4e0akhCMBk4jk-371" style="edgeStyle=orthogonalEdgeStyle;rounded=0;orthogonalLoop=1;jettySize=auto;html=1;exitX=1;exitY=0.5;exitDx=0;exitDy=0;entryX=1;entryY=0.5;entryDx=0;entryDy=0;" parent="aHdXoiT4e0akhCMBk4jk-364" source="aHdXoiT4e0akhCMBk4jk-368" target="aHdXoiT4e0akhCMBk4jk-365" edge="1">
          <mxGeometry relative="1" as="geometry" />
        </mxCell>
        <mxCell id="aHdXoiT4e0akhCMBk4jk-372" value="MemoryHeap" style="swimlane;whiteSpace=wrap;html=1;fillColor=#dae8fc;strokeColor=#6c8ebf;" parent="aHdXoiT4e0akhCMBk4jk-363" vertex="1">
          <mxGeometry x="250" y="40" width="210" height="200" as="geometry" />
        </mxCell>
        <mxCell id="aHdXoiT4e0akhCMBk4jk-378" style="edgeStyle=orthogonalEdgeStyle;rounded=0;orthogonalLoop=1;jettySize=auto;html=1;exitX=1;exitY=0.5;exitDx=0;exitDy=0;entryX=1;entryY=0.5;entryDx=0;entryDy=0;fillColor=#ffe6cc;strokeColor=#d79b00;" parent="aHdXoiT4e0akhCMBk4jk-372" source="aHdXoiT4e0akhCMBk4jk-373" target="aHdXoiT4e0akhCMBk4jk-377" edge="1">
          <mxGeometry relative="1" as="geometry" />
        </mxCell>
        <mxCell id="aHdXoiT4e0akhCMBk4jk-382" style="edgeStyle=orthogonalEdgeStyle;rounded=0;orthogonalLoop=1;jettySize=auto;html=1;exitX=0;exitY=0.5;exitDx=0;exitDy=0;entryX=0;entryY=0.5;entryDx=0;entryDy=0;fillColor=#dae8fc;strokeColor=#6c8ebf;" parent="aHdXoiT4e0akhCMBk4jk-372" source="aHdXoiT4e0akhCMBk4jk-373" target="aHdXoiT4e0akhCMBk4jk-379" edge="1">
          <mxGeometry relative="1" as="geometry" />
        </mxCell>
        <mxCell id="aHdXoiT4e0akhCMBk4jk-373" value="&lt;div&gt;a: 1, b: 2,&amp;nbsp;&lt;/div&gt;&lt;div&gt;c: 위 주황색&lt;span style=&quot;background-color: initial;&quot;&gt;,&lt;/span&gt;&lt;/div&gt;&lt;div&gt;&lt;span style=&quot;background-color: initial;&quot;&gt;d: 위 파란색&lt;/span&gt;&lt;/div&gt;" style="rounded=0;whiteSpace=wrap;html=1;" parent="aHdXoiT4e0akhCMBk4jk-372" vertex="1">
          <mxGeometry x="10" y="130" width="190" height="60" as="geometry" />
        </mxCell>
        <mxCell id="aHdXoiT4e0akhCMBk4jk-377" value="&lt;div&gt;&lt;span style=&quot;background-color: initial;&quot;&gt;function() {&amp;nbsp;&lt;/span&gt;&lt;span style=&quot;background-color: initial;&quot;&gt;console.log(this); },&lt;/span&gt;&lt;/div&gt;" style="rounded=0;whiteSpace=wrap;html=1;fillColor=#ffe6cc;strokeColor=#d79b00;" parent="aHdXoiT4e0akhCMBk4jk-372" vertex="1">
          <mxGeometry x="10" y="90" width="190" height="31" as="geometry" />
        </mxCell>
        <mxCell id="aHdXoiT4e0akhCMBk4jk-379" value="&lt;div&gt;&lt;span style=&quot;background-color: initial;&quot;&gt;()=&amp;gt;{ console.log(this); }&lt;/span&gt;&lt;br&gt;&lt;/div&gt;" style="rounded=0;whiteSpace=wrap;html=1;fillColor=#dae8fc;strokeColor=#6c8ebf;" parent="aHdXoiT4e0akhCMBk4jk-372" vertex="1">
          <mxGeometry x="10" y="60" width="190" height="30" as="geometry" />
        </mxCell>
        <mxCell id="aHdXoiT4e0akhCMBk4jk-374" style="edgeStyle=orthogonalEdgeStyle;rounded=0;orthogonalLoop=1;jettySize=auto;html=1;entryX=0.5;entryY=1;entryDx=0;entryDy=0;" parent="aHdXoiT4e0akhCMBk4jk-363" source="aHdXoiT4e0akhCMBk4jk-366" target="aHdXoiT4e0akhCMBk4jk-373" edge="1">
          <mxGeometry relative="1" as="geometry" />
        </mxCell>
        <mxCell id="aHdXoiT4e0akhCMBk4jk-385" value="Event Loop" style="swimlane;whiteSpace=wrap;html=1;" parent="1" vertex="1">
          <mxGeometry x="40" y="5520" width="770" height="490" as="geometry" />
        </mxCell>
        <mxCell id="aHdXoiT4e0akhCMBk4jk-386" value="JS Engine(V8)" style="swimlane;whiteSpace=wrap;html=1;labelBackgroundColor=none;fillColor=#d5e8d4;strokeColor=#82b366;" parent="aHdXoiT4e0akhCMBk4jk-385" vertex="1">
          <mxGeometry x="20" y="40" width="440" height="260" as="geometry" />
        </mxCell>
        <mxCell id="aHdXoiT4e0akhCMBk4jk-387" value="CallStack" style="swimlane;whiteSpace=wrap;html=1;fillColor=#dae8fc;strokeColor=#6c8ebf;" parent="aHdXoiT4e0akhCMBk4jk-386" vertex="1">
          <mxGeometry x="20" y="40" width="200" height="200" as="geometry" />
        </mxCell>
        <mxCell id="aHdXoiT4e0akhCMBk4jk-388" value="Execution Context&lt;div&gt;실행 컨텍스트&lt;/div&gt;" style="rounded=0;whiteSpace=wrap;html=1;fillColor=#fff2cc;strokeColor=#d6b656;" parent="aHdXoiT4e0akhCMBk4jk-387" vertex="1">
          <mxGeometry x="10" y="150" width="180" height="40" as="geometry" />
        </mxCell>
        <mxCell id="aHdXoiT4e0akhCMBk4jk-400" style="edgeStyle=orthogonalEdgeStyle;rounded=0;orthogonalLoop=1;jettySize=auto;html=1;exitX=0;exitY=0.25;exitDx=0;exitDy=0;entryX=0;entryY=0.75;entryDx=0;entryDy=0;" parent="aHdXoiT4e0akhCMBk4jk-387" source="aHdXoiT4e0akhCMBk4jk-397" target="aHdXoiT4e0akhCMBk4jk-388" edge="1">
          <mxGeometry relative="1" as="geometry">
            <Array as="points">
              <mxPoint x="-30" y="120" />
              <mxPoint x="-30" y="180" />
            </Array>
          </mxGeometry>
        </mxCell>
        <mxCell id="aHdXoiT4e0akhCMBk4jk-397" value="Execution Context(funcB)&lt;div&gt;실행 컨텍스트&lt;/div&gt;" style="rounded=0;whiteSpace=wrap;html=1;fillColor=#fff2cc;strokeColor=#d6b656;" parent="aHdXoiT4e0akhCMBk4jk-387" vertex="1">
          <mxGeometry x="10" y="110" width="180" height="40" as="geometry" />
        </mxCell>
        <mxCell id="aHdXoiT4e0akhCMBk4jk-399" style="edgeStyle=orthogonalEdgeStyle;rounded=0;orthogonalLoop=1;jettySize=auto;html=1;exitX=0;exitY=0.25;exitDx=0;exitDy=0;entryX=0;entryY=0.5;entryDx=0;entryDy=0;" parent="aHdXoiT4e0akhCMBk4jk-387" source="aHdXoiT4e0akhCMBk4jk-398" target="aHdXoiT4e0akhCMBk4jk-388" edge="1">
          <mxGeometry relative="1" as="geometry" />
        </mxCell>
        <mxCell id="aHdXoiT4e0akhCMBk4jk-398" value="Execution Context(funcA)&lt;div&gt;실행 컨텍스트&lt;/div&gt;" style="rounded=0;whiteSpace=wrap;html=1;fillColor=#fff2cc;strokeColor=#d6b656;" parent="aHdXoiT4e0akhCMBk4jk-387" vertex="1">
          <mxGeometry x="10" y="70" width="180" height="40" as="geometry" />
        </mxCell>
        <mxCell id="aHdXoiT4e0akhCMBk4jk-389" value="MemoryHeap" style="swimlane;whiteSpace=wrap;html=1;fillColor=#dae8fc;strokeColor=#6c8ebf;" parent="aHdXoiT4e0akhCMBk4jk-386" vertex="1">
          <mxGeometry x="220" y="40" width="200" height="200" as="geometry" />
        </mxCell>
        <mxCell id="aHdXoiT4e0akhCMBk4jk-402" value="() =&amp;gt; {&lt;div&gt;console.log(&#39;1초 지났어&#39;);&lt;/div&gt;&lt;div&gt;}&lt;/div&gt;" style="rounded=0;whiteSpace=wrap;html=1;" parent="aHdXoiT4e0akhCMBk4jk-389" vertex="1">
          <mxGeometry x="30" y="140" width="160" height="50" as="geometry" />
        </mxCell>
        <mxCell id="aHdXoiT4e0akhCMBk4jk-390" value="CallbackQueue" style="swimlane;whiteSpace=wrap;html=1;fillColor=#d5e8d4;strokeColor=#82b366;" parent="aHdXoiT4e0akhCMBk4jk-385" vertex="1">
          <mxGeometry x="280" y="340" width="460" height="110" as="geometry" />
        </mxCell>
        <mxCell id="aHdXoiT4e0akhCMBk4jk-407" value="() =&amp;gt; {&lt;div&gt;console.log(&#39;1초 지났어&#39;);&lt;/div&gt;&lt;div&gt;}&lt;/div&gt;" style="rounded=0;whiteSpace=wrap;html=1;" parent="aHdXoiT4e0akhCMBk4jk-390" vertex="1">
          <mxGeometry x="10" y="40" width="160" height="50" as="geometry" />
        </mxCell>
        <mxCell id="aHdXoiT4e0akhCMBk4jk-391" value="Web APIs" style="swimlane;whiteSpace=wrap;html=1;fillColor=#d5e8d4;strokeColor=#82b366;" parent="aHdXoiT4e0akhCMBk4jk-385" vertex="1">
          <mxGeometry x="590" y="40" width="160" height="220" as="geometry" />
        </mxCell>
        <mxCell id="aHdXoiT4e0akhCMBk4jk-392" value="window(BOM)" style="rounded=0;whiteSpace=wrap;html=1;fillColor=#dae8fc;strokeColor=#6c8ebf;" parent="aHdXoiT4e0akhCMBk4jk-391" vertex="1">
          <mxGeometry x="20" y="40" width="120" height="40" as="geometry" />
        </mxCell>
        <mxCell id="aHdXoiT4e0akhCMBk4jk-393" value="setTimeout" style="rounded=0;whiteSpace=wrap;html=1;fillColor=#dae8fc;strokeColor=#6c8ebf;" parent="aHdXoiT4e0akhCMBk4jk-391" vertex="1">
          <mxGeometry x="20" y="80" width="120" height="40" as="geometry" />
        </mxCell>
        <mxCell id="aHdXoiT4e0akhCMBk4jk-394" value="setInterval" style="rounded=0;whiteSpace=wrap;html=1;fillColor=#dae8fc;strokeColor=#6c8ebf;" parent="aHdXoiT4e0akhCMBk4jk-391" vertex="1">
          <mxGeometry x="20" y="120" width="120" height="40" as="geometry" />
        </mxCell>
        <mxCell id="aHdXoiT4e0akhCMBk4jk-395" value="Ajax" style="rounded=0;whiteSpace=wrap;html=1;fillColor=#dae8fc;strokeColor=#6c8ebf;" parent="aHdXoiT4e0akhCMBk4jk-391" vertex="1">
          <mxGeometry x="20" y="160" width="120" height="40" as="geometry" />
        </mxCell>
        <mxCell id="aHdXoiT4e0akhCMBk4jk-409" style="edgeStyle=orthogonalEdgeStyle;rounded=0;orthogonalLoop=1;jettySize=auto;html=1;entryX=0;entryY=0.25;entryDx=0;entryDy=0;" parent="aHdXoiT4e0akhCMBk4jk-385" source="aHdXoiT4e0akhCMBk4jk-396" target="aHdXoiT4e0akhCMBk4jk-390" edge="1">
          <mxGeometry relative="1" as="geometry" />
        </mxCell>
        <mxCell id="aHdXoiT4e0akhCMBk4jk-396" value="Event Loop" style="ellipse;shape=umlControl;whiteSpace=wrap;html=1;fontSize=20;fillColor=#d5e8d4;strokeColor=#82b366;" parent="aHdXoiT4e0akhCMBk4jk-385" vertex="1">
          <mxGeometry x="40" y="315" width="140" height="160" as="geometry" />
        </mxCell>
        <mxCell id="aHdXoiT4e0akhCMBk4jk-403" style="edgeStyle=orthogonalEdgeStyle;rounded=0;orthogonalLoop=1;jettySize=auto;html=1;exitX=1;exitY=0.5;exitDx=0;exitDy=0;entryX=0;entryY=0.5;entryDx=0;entryDy=0;" parent="aHdXoiT4e0akhCMBk4jk-385" source="aHdXoiT4e0akhCMBk4jk-402" target="aHdXoiT4e0akhCMBk4jk-393" edge="1">
          <mxGeometry relative="1" as="geometry" />
        </mxCell>
        <mxCell id="aHdXoiT4e0akhCMBk4jk-404" style="edgeStyle=orthogonalEdgeStyle;rounded=0;orthogonalLoop=1;jettySize=auto;html=1;exitX=1;exitY=0.5;exitDx=0;exitDy=0;entryX=0;entryY=0.5;entryDx=0;entryDy=0;" parent="aHdXoiT4e0akhCMBk4jk-385" source="aHdXoiT4e0akhCMBk4jk-388" target="aHdXoiT4e0akhCMBk4jk-393" edge="1">
          <mxGeometry relative="1" as="geometry">
            <Array as="points">
              <mxPoint x="260" y="250" />
              <mxPoint x="260" y="140" />
            </Array>
          </mxGeometry>
        </mxCell>
        <mxCell id="aHdXoiT4e0akhCMBk4jk-408" style="edgeStyle=orthogonalEdgeStyle;rounded=0;orthogonalLoop=1;jettySize=auto;html=1;exitX=1;exitY=0.5;exitDx=0;exitDy=0;entryX=1;entryY=0.5;entryDx=0;entryDy=0;" parent="aHdXoiT4e0akhCMBk4jk-385" source="aHdXoiT4e0akhCMBk4jk-393" target="aHdXoiT4e0akhCMBk4jk-407" edge="1">
          <mxGeometry relative="1" as="geometry" />
        </mxCell>
        <mxCell id="aHdXoiT4e0akhCMBk4jk-410" style="edgeStyle=orthogonalEdgeStyle;rounded=0;orthogonalLoop=1;jettySize=auto;html=1;exitX=0;exitY=0.5;exitDx=0;exitDy=0;entryX=0.991;entryY=0.658;entryDx=0;entryDy=0;entryPerimeter=0;" parent="aHdXoiT4e0akhCMBk4jk-385" source="aHdXoiT4e0akhCMBk4jk-407" target="aHdXoiT4e0akhCMBk4jk-396" edge="1">
          <mxGeometry relative="1" as="geometry" />
        </mxCell>
        <mxCell id="5OkgG4CGcZA9tQ9kSLm1-1" value="Event Loop" style="swimlane;whiteSpace=wrap;html=1;" vertex="1" parent="1">
          <mxGeometry x="40" y="6089" width="480" height="340" as="geometry" />
        </mxCell>
        <mxCell id="5OkgG4CGcZA9tQ9kSLm1-2" value="CallStack" style="swimlane;whiteSpace=wrap;html=1;fillColor=#dae8fc;strokeColor=#6c8ebf;" vertex="1" parent="5OkgG4CGcZA9tQ9kSLm1-1">
          <mxGeometry x="20" y="40" width="215" height="280" as="geometry" />
        </mxCell>
        <mxCell id="5OkgG4CGcZA9tQ9kSLm1-3" value="글로벌 실행 컨텍스트" style="swimlane;whiteSpace=wrap;html=1;fillColor=#fff2cc;strokeColor=#d6b656;" vertex="1" parent="5OkgG4CGcZA9tQ9kSLm1-2">
          <mxGeometry x="15" y="190" width="175" height="70" as="geometry" />
        </mxCell>
        <mxCell id="5OkgG4CGcZA9tQ9kSLm1-4" value="" style="rounded=0;whiteSpace=wrap;html=1;" vertex="1" parent="5OkgG4CGcZA9tQ9kSLm1-3">
          <mxGeometry x="15" y="30" width="75" height="30" as="geometry" />
        </mxCell>
        <mxCell id="5OkgG4CGcZA9tQ9kSLm1-20" value="실행 컨텍스트(setCount)" style="swimlane;whiteSpace=wrap;html=1;fillColor=#fff2cc;strokeColor=#d6b656;" vertex="1" parent="5OkgG4CGcZA9tQ9kSLm1-2">
          <mxGeometry x="15" y="120" width="175" height="70" as="geometry" />
        </mxCell>
        <mxCell id="5OkgG4CGcZA9tQ9kSLm1-21" value="count" style="rounded=0;whiteSpace=wrap;html=1;" vertex="1" parent="5OkgG4CGcZA9tQ9kSLm1-20">
          <mxGeometry x="15" y="30" width="45" height="30" as="geometry" />
        </mxCell>
        <mxCell id="5OkgG4CGcZA9tQ9kSLm1-22" value="outer" style="rounded=0;whiteSpace=wrap;html=1;" vertex="1" parent="5OkgG4CGcZA9tQ9kSLm1-20">
          <mxGeometry x="120" y="30" width="45" height="30" as="geometry" />
        </mxCell>
        <mxCell id="5OkgG4CGcZA9tQ9kSLm1-23" style="edgeStyle=orthogonalEdgeStyle;rounded=0;orthogonalLoop=1;jettySize=auto;html=1;exitX=1;exitY=0.5;exitDx=0;exitDy=0;entryX=1;entryY=0.5;entryDx=0;entryDy=0;" edge="1" parent="5OkgG4CGcZA9tQ9kSLm1-2" source="5OkgG4CGcZA9tQ9kSLm1-22" target="5OkgG4CGcZA9tQ9kSLm1-3">
          <mxGeometry relative="1" as="geometry" />
        </mxCell>
        <mxCell id="5OkgG4CGcZA9tQ9kSLm1-10" value="MemoryHeap" style="swimlane;whiteSpace=wrap;html=1;fillColor=#dae8fc;strokeColor=#6c8ebf;" vertex="1" parent="5OkgG4CGcZA9tQ9kSLm1-1">
          <mxGeometry x="250" y="40" width="210" height="200" as="geometry" />
        </mxCell>
        <mxCell id="5OkgG4CGcZA9tQ9kSLm1-32" value="Event Loop" style="swimlane;whiteSpace=wrap;html=1;" vertex="1" parent="1">
          <mxGeometry x="540" y="6089" width="480" height="340" as="geometry" />
        </mxCell>
        <mxCell id="5OkgG4CGcZA9tQ9kSLm1-33" value="CallStack" style="swimlane;whiteSpace=wrap;html=1;fillColor=#dae8fc;strokeColor=#6c8ebf;" vertex="1" parent="5OkgG4CGcZA9tQ9kSLm1-32">
          <mxGeometry x="20" y="40" width="215" height="280" as="geometry" />
        </mxCell>
        <mxCell id="5OkgG4CGcZA9tQ9kSLm1-34" value="글로벌 실행 컨텍스트" style="swimlane;whiteSpace=wrap;html=1;fillColor=#fff2cc;strokeColor=#d6b656;" vertex="1" parent="5OkgG4CGcZA9tQ9kSLm1-33">
          <mxGeometry x="15" y="190" width="175" height="70" as="geometry" />
        </mxCell>
        <mxCell id="5OkgG4CGcZA9tQ9kSLm1-35" value="count" style="rounded=0;whiteSpace=wrap;html=1;" vertex="1" parent="5OkgG4CGcZA9tQ9kSLm1-34">
          <mxGeometry x="15" y="30" width="75" height="30" as="geometry" />
        </mxCell>
        <mxCell id="5OkgG4CGcZA9tQ9kSLm1-36" value="Closure(setCount)" style="swimlane;whiteSpace=wrap;html=1;fillColor=#f8cecc;strokeColor=#b85450;" vertex="1" parent="5OkgG4CGcZA9tQ9kSLm1-33">
          <mxGeometry x="15" y="120" width="175" height="70" as="geometry" />
        </mxCell>
        <mxCell id="5OkgG4CGcZA9tQ9kSLm1-37" value="count" style="rounded=0;whiteSpace=wrap;html=1;" vertex="1" parent="5OkgG4CGcZA9tQ9kSLm1-36">
          <mxGeometry x="15" y="30" width="45" height="30" as="geometry" />
        </mxCell>
        <mxCell id="5OkgG4CGcZA9tQ9kSLm1-38" value="outer" style="rounded=0;whiteSpace=wrap;html=1;" vertex="1" parent="5OkgG4CGcZA9tQ9kSLm1-36">
          <mxGeometry x="120" y="30" width="45" height="30" as="geometry" />
        </mxCell>
        <mxCell id="5OkgG4CGcZA9tQ9kSLm1-39" style="edgeStyle=orthogonalEdgeStyle;rounded=0;orthogonalLoop=1;jettySize=auto;html=1;exitX=1;exitY=0.5;exitDx=0;exitDy=0;entryX=1;entryY=0.5;entryDx=0;entryDy=0;" edge="1" parent="5OkgG4CGcZA9tQ9kSLm1-33" source="5OkgG4CGcZA9tQ9kSLm1-38" target="5OkgG4CGcZA9tQ9kSLm1-34">
          <mxGeometry relative="1" as="geometry" />
        </mxCell>
        <mxCell id="5OkgG4CGcZA9tQ9kSLm1-48" value="실행 컨텍스트(getCount)" style="swimlane;whiteSpace=wrap;html=1;fillColor=#fff2cc;strokeColor=#d6b656;" vertex="1" parent="5OkgG4CGcZA9tQ9kSLm1-33">
          <mxGeometry x="15" y="50" width="175" height="70" as="geometry" />
        </mxCell>
        <mxCell id="5OkgG4CGcZA9tQ9kSLm1-49" value="" style="rounded=0;whiteSpace=wrap;html=1;" vertex="1" parent="5OkgG4CGcZA9tQ9kSLm1-48">
          <mxGeometry x="15" y="30" width="45" height="30" as="geometry" />
        </mxCell>
        <mxCell id="5OkgG4CGcZA9tQ9kSLm1-50" value="outer" style="rounded=0;whiteSpace=wrap;html=1;" vertex="1" parent="5OkgG4CGcZA9tQ9kSLm1-48">
          <mxGeometry x="120" y="30" width="45" height="30" as="geometry" />
        </mxCell>
        <mxCell id="5OkgG4CGcZA9tQ9kSLm1-51" style="edgeStyle=orthogonalEdgeStyle;rounded=0;orthogonalLoop=1;jettySize=auto;html=1;exitX=1;exitY=0.5;exitDx=0;exitDy=0;entryX=1;entryY=0.25;entryDx=0;entryDy=0;" edge="1" parent="5OkgG4CGcZA9tQ9kSLm1-33" source="5OkgG4CGcZA9tQ9kSLm1-50" target="5OkgG4CGcZA9tQ9kSLm1-36">
          <mxGeometry relative="1" as="geometry" />
        </mxCell>
        <mxCell id="5OkgG4CGcZA9tQ9kSLm1-40" value="MemoryHeap" style="swimlane;whiteSpace=wrap;html=1;fillColor=#dae8fc;strokeColor=#6c8ebf;" vertex="1" parent="5OkgG4CGcZA9tQ9kSLm1-32">
          <mxGeometry x="250" y="40" width="210" height="200" as="geometry" />
        </mxCell>
        <mxCell id="5OkgG4CGcZA9tQ9kSLm1-45" style="edgeStyle=orthogonalEdgeStyle;rounded=0;orthogonalLoop=1;jettySize=auto;html=1;exitX=0.75;exitY=1;exitDx=0;exitDy=0;entryX=0.5;entryY=1;entryDx=0;entryDy=0;" edge="1" parent="5OkgG4CGcZA9tQ9kSLm1-40" source="5OkgG4CGcZA9tQ9kSLm1-41" target="5OkgG4CGcZA9tQ9kSLm1-43">
          <mxGeometry relative="1" as="geometry" />
        </mxCell>
        <mxCell id="5OkgG4CGcZA9tQ9kSLm1-53" style="edgeStyle=orthogonalEdgeStyle;rounded=0;orthogonalLoop=1;jettySize=auto;html=1;exitX=0.75;exitY=0;exitDx=0;exitDy=0;entryX=0;entryY=0.5;entryDx=0;entryDy=0;" edge="1" parent="5OkgG4CGcZA9tQ9kSLm1-40" source="5OkgG4CGcZA9tQ9kSLm1-41" target="5OkgG4CGcZA9tQ9kSLm1-42">
          <mxGeometry relative="1" as="geometry" />
        </mxCell>
        <mxCell id="5OkgG4CGcZA9tQ9kSLm1-41" value="getCount&lt;div&gt;increase&lt;/div&gt;&lt;div&gt;decrease&lt;/div&gt;" style="rounded=0;whiteSpace=wrap;html=1;verticalAlign=bottom;" vertex="1" parent="5OkgG4CGcZA9tQ9kSLm1-40">
          <mxGeometry x="10" y="120" width="110" height="70" as="geometry" />
        </mxCell>
        <mxCell id="5OkgG4CGcZA9tQ9kSLm1-42" value="return count" style="rounded=0;whiteSpace=wrap;html=1;" vertex="1" parent="5OkgG4CGcZA9tQ9kSLm1-40">
          <mxGeometry x="135" y="41" width="70" height="50" as="geometry" />
        </mxCell>
        <mxCell id="5OkgG4CGcZA9tQ9kSLm1-43" value="count++" style="rounded=0;whiteSpace=wrap;html=1;" vertex="1" parent="5OkgG4CGcZA9tQ9kSLm1-40">
          <mxGeometry x="130" y="131" width="75" height="50" as="geometry" />
        </mxCell>
        <mxCell id="5OkgG4CGcZA9tQ9kSLm1-54" value="outer" style="rounded=0;whiteSpace=wrap;html=1;" vertex="1" parent="5OkgG4CGcZA9tQ9kSLm1-40">
          <mxGeometry x="10" y="120" width="50" height="21" as="geometry" />
        </mxCell>
        <mxCell id="5OkgG4CGcZA9tQ9kSLm1-44" style="edgeStyle=orthogonalEdgeStyle;rounded=0;orthogonalLoop=1;jettySize=auto;html=1;exitX=1;exitY=0.5;exitDx=0;exitDy=0;entryX=0.5;entryY=1;entryDx=0;entryDy=0;" edge="1" parent="5OkgG4CGcZA9tQ9kSLm1-32" source="5OkgG4CGcZA9tQ9kSLm1-35" target="5OkgG4CGcZA9tQ9kSLm1-41">
          <mxGeometry relative="1" as="geometry" />
        </mxCell>
        <mxCell id="5OkgG4CGcZA9tQ9kSLm1-55" style="edgeStyle=orthogonalEdgeStyle;rounded=0;orthogonalLoop=1;jettySize=auto;html=1;exitX=0;exitY=0.5;exitDx=0;exitDy=0;entryX=1;entryY=0.5;entryDx=0;entryDy=0;" edge="1" parent="5OkgG4CGcZA9tQ9kSLm1-32" source="5OkgG4CGcZA9tQ9kSLm1-54" target="5OkgG4CGcZA9tQ9kSLm1-36">
          <mxGeometry relative="1" as="geometry" />
        </mxCell>
      </root>
    </mxGraphModel>
  </diagram>
</mxfile>
